<?xml version="1.0" standalone="no"?>
<!DOCTYPE svg PUBLIC "-//W3C//DTD SVG 1.1//EN" "http://www.w3.org/Graphics/SVG/1.1/DTD/svg11.dtd" >
<svg>
<metadata>
Created by FontForge 20120731 at Fri Oct 27 11:54:05 2023
 By www
Copyright (c) 2011 by Aviation Partners. All rights reserved.
</metadata>
<defs>
<font id="MensaW01-Semibold" horiz-adv-x="672" >
  <font-face 
    font-family="MensaW01-Semibold"
    font-weight="600"
    font-stretch="normal"
    units-per-em="1000"
    panose-1="1 0 0 0 0 0 0 0 0 0"
    ascent="800"
    descent="-200"
    x-height="546"
    cap-height="727"
    bbox="-96 -232 1296 985"
    underline-thickness="50"
    underline-position="-125"
    unicode-range="U+0020-2122"
  />
<missing-glyph horiz-adv-x="520" 
d="M10 727h500v-727h-500v727zM430 677h-340l170 -268zM460 95v537l-170 -268zM430 50l-170 269l-170 -269h340zM60 95l170 269l-170 268v-537z" />
    <glyph glyph-name=".notdef" horiz-adv-x="520" 
d="M10 727h500v-727h-500v727zM430 677h-340l170 -268zM460 95v537l-170 -268zM430 50l-170 269l-170 -269h340zM60 95l170 269l-170 268v-537z" />
    <glyph glyph-name=".null" horiz-adv-x="0" 
 />
    <glyph glyph-name="nonmarkingreturn" horiz-adv-x="333" 
 />
    <glyph glyph-name="glyph219" horiz-adv-x="0" 
 />
    <glyph glyph-name="glyph219" horiz-adv-x="0" 
 />
    <glyph glyph-name="space" unicode=" " horiz-adv-x="210" 
 />
    <glyph glyph-name="exclam" unicode="!" horiz-adv-x="313" 
d="M257 78q0 -18 -8 -33.5t-21.5 -27t-31.5 -18t-39 -6.5q-42 0 -71 24.5t-29 60.5q0 17 7.5 32.5t21 27t32 18.5t39.5 7t39 -7t31.5 -18.5t21.5 -27t8 -32.5zM238 233h-160l-20 532h200z" />
    <glyph glyph-name="quotedbl" unicode="&#x22;" horiz-adv-x="461" 
d="M417 765l-17 -317h-120l-17 317h154zM198 765l-17 -317h-120l-17 317h154z" />
    <glyph glyph-name="numbersign" unicode="#" 
d="M672 405h-115l-29 -118h82v-153h-121l-33 -134h-157l35 134h-88l-33 -134h-157l35 134h-91v153h130q5 21 12.5 52t15.5 66h-96v155h135l33 133h157l-35 -133h88l33 133h157l-35 -133h77v-155zM403 406h-91l-29 -119h90z" />
    <glyph glyph-name="dollar" unicode="$" horiz-adv-x="590" 
d="M556 238q0 -84 -48 -139.5t-149 -72.5v-126h-131v121q-29 2 -52.5 6.5t-46 11.5t-45 15t-47.5 18v176h19q21 -15 41 -28t43 -22.5t49.5 -15t59.5 -5.5h3q43 0 68.5 11.5t25.5 34.5q0 17 -28.5 33t-79.5 36q-33 13 -69 29.5t-66 40t-49.5 56.5t-19.5 79q0 83 47.5 137.5
t146.5 68.5v122h131v-120q44 -6 83 -18t81 -30v-171h-21q-38 29 -78 46t-100 18h-8q-70 -3 -70 -43q2 -18 25.5 -31t58 -26.5t74 -29t73.5 -39.5t56.5 -58.5t22.5 -84.5z" />
    <glyph glyph-name="percent" unicode="%" horiz-adv-x="916" 
d="M743 727l-461 -727h-110l461 727h110zM381 546q0 -99 -48 -144t-133 -45q-86 0 -133 45t-47 144t47 144t133 45t133.5 -45t47.5 -144zM250 546q0 15 -1 33t-6 33.5t-15 26t-28 10.5t-28 -10.5t-15 -26t-6 -33.5t-1 -33q0 -16 1 -34.5t6 -34t15 -26t28 -10.5t28 10.5
t15 26t6 34t1 34.5zM894 182q0 -99 -48 -144t-133 -45q-86 0 -133 45t-47 144t47 144t133 45t133.5 -45t47.5 -144zM763 182q0 15 -1 33t-6 33.5t-15 26t-28 10.5t-28 -10.5t-15 -26t-6 -33.5t-1 -33q0 -16 1 -34.5t6 -34t15 -26t28 -10.5t28 10.5t15 26t6 34t1 34.5z" />
    <glyph glyph-name="ampersand" unicode="&#x26;" horiz-adv-x="855" 
d="M818 397q-16 -31 -34.5 -62t-38 -59.5t-39.5 -53t-39 -42.5l181 -180h-278l-56 52q-50 -38 -101 -51.5t-121 -13.5q-58 0 -105 14t-80.5 40t-51.5 63t-18 83q0 29 11 57.5t31.5 54t50.5 47t68 35.5v10q-45 36 -67 71t-22 74q0 45 18.5 83t52.5 65.5t81.5 43t104.5 15.5
q64 0 111.5 -16t78.5 -43t46.5 -61.5t15.5 -70.5q0 -55 -37.5 -99.5t-93.5 -76.5q4 -4 13 -12.5t19.5 -19l20 -20l15.5 -15.5q13 17 28 39.5t29 48.5h206zM294 273q-47 -29 -47 -69q0 -29 20 -47.5t52 -18.5q23 0 41.5 8t41.5 27zM319 558q0 -33 54 -75q31 14 44.5 31
t13.5 37q0 22 -16 35.5t-42 13.5q-24 0 -39 -12t-15 -30z" />
    <glyph glyph-name="quotesingle" unicode="'" horiz-adv-x="242" 
d="M198 765l-17 -317h-120l-17 317h154z" />
    <glyph glyph-name="parenleft" unicode="(" horiz-adv-x="478" 
d="M46 281q0 148 48 266t135 218h236v-12q-100 -95 -153 -215t-53 -257q0 -139 54.5 -260.5t151.5 -208.5v-13h-236q-87 100 -135 217t-48 265z" />
    <glyph glyph-name="parenright" unicode=")" horiz-adv-x="478" 
d="M432 281q0 -148 -48 -265t-135 -217h-236v13q97 87 151.5 208.5t54.5 260.5q0 137 -53 257t-153 215v12h236q87 -100 135 -218t48 -266z" />
    <glyph glyph-name="asterisk" unicode="*" horiz-adv-x="535" 
d="M361 550l119 -61l-54 -92l-112 72l7 -133h-107l6 133l-112 -72l-53 92l118 61l-118 61l53 92l112 -72l-6 134h107l-7 -134l112 72l54 -92z" />
    <glyph glyph-name="plus" unicode="+" 
d="M643 229h-218v-219h-165v219h-218v162h218v219h165v-219h218v-162z" />
    <glyph glyph-name="comma" unicode="," horiz-adv-x="337" 
d="M7 -172q29 81 57 161.5t57 161.5h170l-159 -323h-125z" />
    <glyph glyph-name="hyphen" unicode="-" horiz-adv-x="422" 
d="M394 248h-366v140h366v-140z" />
    <glyph glyph-name="period" unicode="." horiz-adv-x="292" 
d="M246 78q0 -18 -8 -33.5t-21.5 -27t-31.5 -18t-39 -6.5t-39 6.5t-31.5 18t-21.5 27t-8 33.5q0 17 8 32.5t21.5 27t31.5 18.5t39 7t39 -7t31.5 -18.5t21.5 -27t8 -32.5z" />
    <glyph glyph-name="slash" unicode="/" horiz-adv-x="551" 
d="M551 760l-349 -908h-202l349 908h202z" />
    <glyph glyph-name="zero" unicode="0" 
d="M335 742q73 0 130 -22t96 -68.5t59.5 -118t20.5 -169.5q0 -99 -20.5 -170t-59.5 -117.5t-96 -68.5t-130 -22q-145 0 -224.5 90.5t-79.5 287.5q0 196 79.5 287t224.5 91zM335 151q33 0 52 21.5t29 53.5t12.5 69t2.5 69q0 31 -2.5 68t-12.5 69.5t-29 54t-52 21.5
q-32 0 -51 -21.5t-28.5 -54t-12 -69.5t-2.5 -68q0 -32 2.5 -69t12 -69t28.5 -53.5t51 -21.5z" />
    <glyph glyph-name="one" unicode="1" 
d="M504 727v-727h-196v426h-10q-15 -22 -41 -48t-54 -50t-54 -44t-41 -30h-10v201q42 25 88 64q39 33 87.5 84.5t96.5 123.5h134z" />
    <glyph glyph-name="two" unicode="2" 
d="M421 255q-26 -18 -59 -38.5t-75 -40.5v-10h319v-166h-548v163q37 30 66.5 54.5t53.5 44.5t44 37t38 34q19 18 40 37.5t38 40.5t28.5 44.5t11.5 50.5q0 32 -25 51.5t-65 19.5q-60 0 -110 -20t-89 -53h-10v180q55 27 107 42.5t113 15.5q67 0 120.5 -15.5t91 -44t57.5 -69.5
t20 -91q0 -67 -37.5 -136t-129.5 -131z" />
    <glyph glyph-name="three" unicode="3" 
d="M583 560q0 -48 -37 -93t-115 -65v-10q44 -8 75.5 -26.5t52 -42.5t30 -51t9.5 -53q0 -57 -24 -101t-64 -73t-92 -44t-108 -15q-38 0 -68 4t-55.5 11.5t-49.5 18.5t-50 25v184h10q21 -17 41.5 -31t43.5 -24.5t50 -16.5t60 -6q43 0 69.5 19t26.5 63q0 41 -32.5 58t-92.5 17
h-76v133h68q58 0 87.5 21.5t29.5 54.5q0 29 -27 44.5t-61 15.5q-30 0 -54 -5t-44 -15t-39 -23.5t-38 -29.5h-10v180q54 27 104 42.5t111 15.5q45 0 92.5 -9t87 -30t64.5 -56t25 -87z" />
    <glyph glyph-name="four" unicode="4" 
d="M637 310v-140h-97v-170h-196v170h-309v169l321 388h184v-417h97zM344 444q0 12 0.5 27.5t2 32t2.5 32.5t3 28h-10l-149 -258q9 1 20 2q10 1 22.5 1.5t27.5 0.5h81v134z" />
    <glyph glyph-name="five" unicode="5" 
d="M378 488q43 0 84.5 -13.5t73 -42.5t51 -74t19.5 -108q0 -58 -22 -106.5t-62 -83.5t-96 -54.5t-125 -19.5q-38 0 -65.5 4.5t-51.5 12.5t-47.5 18.5t-52.5 23.5v184h10q41 -34 87 -56t112 -22q46 0 74.5 28.5t28.5 76.5q0 42 -31.5 67t-84.5 25q-45 0 -83 -7.5t-80 -23.5
h-10l26 410h454v-157h-272l-6 -91q3 1 13 3t21.5 3t21.5 2t13 1z" />
    <glyph glyph-name="six" unicode="6" 
d="M383 484q50 0 97 -15t83 -45t57.5 -74t21.5 -102t-21.5 -106.5t-60.5 -83t-94.5 -53.5t-124.5 -19q-93 0 -152 28.5t-92 76.5t-45.5 111.5t-12.5 134.5q0 98 23.5 173.5t66 127t103 78t135.5 26.5q68 0 124 -15t116 -43v-180h-10q-38 32 -86 52.5t-119 20.5
q-24 0 -48.5 -9.5t-46.5 -29.5t-38.5 -51.5t-24.5 -75.5h10q23 30 56.5 51.5t82.5 21.5zM341 151q45 0 68 30t23 78q0 42 -24.5 66.5t-66.5 24.5t-67 -24.5t-25 -66.5q0 -48 23.5 -78t68.5 -30z" />
    <glyph glyph-name="seven" unicode="7" 
d="M638 600l-348 -601h-225l143 246q26 45 63.5 101t72.5 106q40 58 84 118h-387v157h597v-127z" />
    <glyph glyph-name="eight" unicode="8" 
d="M614 534q0 -20 -9.5 -41t-24.5 -40t-34.5 -34t-39.5 -23v-10q24 -8 47 -24.5t41 -39t29 -49.5t11 -56q0 -53 -20.5 -95.5t-59 -72.5t-94 -46.5t-124.5 -16.5t-124 16.5t-93.5 46.5t-59 72.5t-20.5 95.5q0 28 11 55t29 49.5t40.5 39.5t46.5 25v10q-20 8 -39 23.5t-34 34
t-24 39.5t-9 41q0 54 23.5 93t62 64.5t88 38t102.5 12.5q54 0 104 -12.5t88.5 -38t62 -64.5t23.5 -93zM336 140q45 0 66.5 23.5t21.5 61.5t-23 62.5t-65 24.5q-41 0 -64 -24.5t-23 -62.5t21.5 -61.5t65.5 -23.5zM336 589q-32 0 -50 -15t-18 -42q0 -32 16.5 -50t51.5 -18
t52.5 18t17.5 50q0 27 -19 42t-51 15z" />
    <glyph glyph-name="nine" unicode="9" 
d="M293 244q-50 0 -97 15t-83 45t-57.5 74t-21.5 102t21.5 106.5t60.5 83t94.5 53.5t124.5 19q93 0 152 -28.5t92 -76.5t45.5 -112t12.5 -134q0 -98 -23.5 -173.5t-66 -127t-103 -78t-135.5 -26.5q-68 0 -124 15t-116 43v180h10q38 -32 86 -52.5t119 -20.5q24 0 48.5 9.5
t46 29.5t38.5 51.5t25 75.5h-10q-23 -30 -56.5 -51.5t-82.5 -21.5zM335 577q-45 0 -68 -30t-23 -78q0 -42 24.5 -66.5t66.5 -24.5t67 24.5t25 66.5q0 48 -23.5 78t-68.5 30z" />
    <glyph glyph-name="colon" unicode=":" horiz-adv-x="292" 
d="M246 78q0 -18 -8 -33.5t-21.5 -27t-31.5 -18t-39 -6.5t-39 6.5t-31.5 18t-21.5 27t-8 33.5q0 17 8 32.5t21.5 27t31.5 18.5t39 7t39 -7t31.5 -18.5t21.5 -27t8 -32.5zM246 469q0 -36 -29 -60.5t-71 -24.5q-21 0 -39 6.5t-31.5 18t-21.5 27t-8 33.5q0 17 8 32.5t21.5 27
t31.5 18.5t39 7t39 -7t31.5 -18.5t21.5 -27t8 -32.5z" />
    <glyph glyph-name="semicolon" unicode=";" horiz-adv-x="337" 
d="M290 468q0 -18 -8 -33.5t-21.5 -27t-31.5 -18t-39 -6.5t-39 6.5t-31.5 18t-21.5 27t-8 33.5t8 33.5t21.5 27t31.5 18.5t39 7t39 -7t31.5 -18.5t21.5 -27t8 -33.5zM7 -172q29 81 57 161.5t57 161.5h170l-159 -323h-125z" />
    <glyph glyph-name="less" unicode="&#x3c;" 
d="M622 4q-8 4 -50.5 22.5t-102 45t-127.5 57t-127.5 57t-102 45t-50.5 22.5v114l560 249v-180l-290 -126q35 -15 73 -31.5t75.5 -33t73.5 -32.5t68 -29v-180z" />
    <glyph glyph-name="equal" unicode="=" 
d="M629 366h-574v163h574v-163zM629 101h-574v163h574v-163z" />
    <glyph glyph-name="greater" unicode="&#x3e;" 
d="M622 253l-560 -249v180l290 126q-75 32 -148.5 64.5t-141.5 61.5v180q8 -4 50.5 -22.5t102 -45t127.5 -56.5t127.5 -56.5t102 -45.5t50.5 -23v-114z" />
    <glyph glyph-name="question" unicode="?" horiz-adv-x="562" 
d="M332 77q0 -35 -25 -59.5t-60 -24.5t-60 24.5t-25 59.5q0 17 6.5 32.5t18 27t27 18.5t33.5 7t33.5 -7t27 -18.5t18 -27t6.5 -32.5zM531 588q0 -29 -8 -55t-26 -51.5t-48 -50t-74 -49.5l-42 -24q-2 -32 -2.5 -63t-1.5 -63h-161q-1 48 -2.5 95t-3.5 95q19 11 46 24t52 29.5
t43 36.5t18 45q0 26 -24 39.5t-63 13.5q-60 0 -104 -19.5t-83 -46.5h-22v183q55 23 107 35.5t113 12.5q66 0 119 -14t90 -38.5t57 -59t20 -75.5z" />
    <glyph glyph-name="at" unicode="@" horiz-adv-x="932" 
d="M466 742q90 0 169 -34t138.5 -93t93.5 -138.5t34 -169.5q0 -68 -19.5 -129.5t-54.5 -114.5h-296l-6 100h-8q-20 -57 -53 -83.5t-86 -26.5q-42 0 -74.5 19t-55.5 52.5t-35 80t-12 101.5t12 101t35 79.5t55.5 52.5t74.5 19q53 0 85.5 -26.5t52.5 -82.5h8l3 99h150v-406h89
q38 74 38 165q0 73 -26.5 137t-72.5 112t-107.5 75.5t-131.5 27.5t-131.5 -27.5t-107.5 -75.5t-72.5 -112t-26.5 -137t26.5 -137t72.5 -112t107.5 -75.5t131.5 -27.5q66 0 125 24h13v-83q-34 -12 -67 -18t-71 -6q-90 0 -169 34t-138.5 93.5t-93.5 138.5t-34 169t34 169.5
t93.5 138.5t138.5 93t169 34zM450 201q37 0 57 27t20 78q0 49 -20 76t-57 27q-36 0 -57.5 -27t-21.5 -76q0 -51 21.5 -78t57.5 -27z" />
    <glyph glyph-name="A" unicode="A" horiz-adv-x="779" 
d="M500 156h-221q-19 -62 -33 -104.5t-18 -51.5h-220l280 727h203l280 -727h-221zM457 307q-19 66 -35.5 132.5t-27.5 120.5h-10q-11 -54 -27.5 -120.5t-34.5 -132.5h135z" />
    <glyph glyph-name="B" unicode="B" horiz-adv-x="696" 
d="M610 552q0 -41 -33.5 -76.5t-81.5 -52.5v-10q44 -11 75.5 -30t52 -43t30 -51.5t9.5 -55.5q0 -63 -21.5 -107t-62 -72t-98 -41t-130.5 -13h-295v727h260q58 0 111.5 -5.5t94 -24t65 -53t24.5 -92.5zM368 165q15 0 30 4t27 12.5t19.5 22t7.5 32.5q0 35 -23.5 51.5
t-56.5 17.5h-121v-140h117zM251 455h85q26 0 45 13t19 42q0 27 -20.5 39.5t-46.5 12.5h-82v-107z" />
    <glyph glyph-name="C" unicode="C" horiz-adv-x="627" 
d="M418 577q-41 0 -73.5 -17.5t-55.5 -47t-35.5 -68t-12.5 -81.5q0 -40 12.5 -78t35.5 -68t55.5 -48t73.5 -18q61 0 98.5 20.5t69.5 58.5h10v-208q-48 -19 -89 -27.5t-87 -8.5q-93 0 -165 26.5t-122 75t-76 118.5t-26 157q0 79 25.5 148.5t74.5 120.5t121.5 80.5t167.5 29.5
q45 0 86.5 -8t89.5 -27v-209h-10q-34 37 -72 58t-96 21z" />
    <glyph glyph-name="D" unicode="D" horiz-adv-x="758" 
d="M55 0v727h250q103 0 181.5 -20t132 -64t81 -113t27.5 -167q0 -86 -22.5 -153t-72.5 -114t-130 -71.5t-196 -24.5h-251zM251 562v-397h46q56 0 97.5 9.5t68.5 32.5t40.5 61.5t13.5 95.5q0 56 -12 93.5t-38.5 61t-68.5 33.5t-102 10h-45z" />
    <glyph glyph-name="E" unicode="E" horiz-adv-x="632" 
d="M598 0h-543v727h543v-165h-347v-106h315v-151h-315v-140h347v-165v0z" />
    <glyph glyph-name="F" unicode="F" horiz-adv-x="609" 
d="M599 562h-348v-106h300v-151h-300v-305h-196v727h544v-165v0z" />
    <glyph glyph-name="G" unicode="G" horiz-adv-x="725" 
d="M679 35q-60 -23 -121.5 -36t-125.5 -13q-93 0 -167.5 25.5t-126 73.5t-79.5 118.5t-28 160.5q0 83 28.5 152.5t82 119.5t130 78t171.5 28q25 0 49.5 -2.5t49.5 -8.5t51.5 -14.5t57.5 -20.5v-187h-10q-33 27 -84.5 47.5t-128.5 20.5q-45 0 -80 -16t-58.5 -44.5t-36 -66.5
t-12.5 -83q0 -101 50.5 -158.5t142.5 -57.5q26 0 49 6v227h196v-349z" />
    <glyph glyph-name="H" unicode="H" horiz-adv-x="753" 
d="M698 0h-196v305h-251v-305h-196v727h196v-271h251v271h196v-727v0z" />
    <glyph glyph-name="I" unicode="I" horiz-adv-x="306" 
d="M55 0v727h196v-727h-196z" />
    <glyph glyph-name="J" unicode="J" horiz-adv-x="426" 
d="M371 727v-512q0 -112 -63 -170.5t-188 -58.5q-27 0 -53 3.5t-57 8.5v178h10q19 -10 41 -17.5t45 -7.5q33 0 51 26t18 61v489h196z" />
    <glyph glyph-name="K" unicode="K" horiz-adv-x="754" 
d="M482 0l-198 276l-33 -36v-240h-196v727h196v-151q0 -13 -0.5 -29.5t-1.5 -33.5t-2.5 -32.5t-2.5 -24.5h10l210 271h254l-302 -315l328 -412h-262z" />
    <glyph glyph-name="L" unicode="L" horiz-adv-x="564" 
d="M560 0h-505v727h196v-562h309v-165v0z" />
    <glyph glyph-name="M" unicode="M" horiz-adv-x="920" 
d="M845 727l50 -727h-196l-22 328q-2 29 -2.5 57.5t-0.5 45.5h-10l-128 -314h-151l-129 314h-10q0 -17 -0.5 -45.5t-2.5 -57.5l-22 -328h-196l50 727h232q29 -61 57 -120q12 -25 24.5 -52.5t24.5 -54.5t23 -52.5t20 -46.5h10q17 43 42 99t48 107q27 59 57 120h232z" />
    <glyph glyph-name="N" unicode="N" horiz-adv-x="753" 
d="M500 0l-247 393h-10q2 -18 5 -54.5t3 -74.5v-264h-196v727h221q56 -88 110 -175t111 -175h10q-2 18 -3.5 53.5t-1.5 71.5v225h196v-727h-198z" />
    <glyph glyph-name="O" unicode="O" horiz-adv-x="809" 
d="M778 363q0 -81 -22 -150.5t-68 -119.5t-116.5 -78.5t-166.5 -28.5q-92 0 -162 26.5t-117 75.5t-71 118.5t-24 156.5q0 81 22 150.5t68 120.5t116.5 79.5t167.5 28.5q92 0 161.5 -26.5t116.5 -76t71 -119.5t24 -157zM405 576q-78 0 -121 -56t-43 -157q0 -103 44.5 -157
t119.5 -54q74 0 118.5 54t44.5 157q0 101 -44 157t-119 56z" />
    <glyph glyph-name="P" unicode="P" horiz-adv-x="642" 
d="M319 727q60 0 114 -12t95 -40t65 -74t24 -113q0 -63 -23 -110.5t-63 -79t-95.5 -47.5t-119.5 -16h-65v-235h-196v727h264zM319 400q36 0 62 21t26 61q0 38 -25 59t-60 21h-71v-162h68z" />
    <glyph glyph-name="Q" unicode="Q" horiz-adv-x="809" 
d="M403 0q-190 0 -281 89.5t-91 274.5q0 81 22 150.5t68 120t116.5 79t167.5 28.5q92 0 161.5 -26.5t116.5 -75.5t71 -119t24 -157q0 -55 -16 -106t-52 -95v-10q13 4 32.5 8t40.5 4h22v-165h-402zM405 577q-78 0 -121 -56t-43 -157q0 -103 44.5 -154t119.5 -51
q74 0 118.5 51t44.5 154q0 101 -44 157t-119 56z" />
    <glyph glyph-name="R" unicode="R" horiz-adv-x="703" 
d="M444 0l-134 250h-59v-250h-196v727h264q60 0 114 -11t95 -38t65 -72t24 -112q0 -77 -31.5 -124.5t-90.5 -75.5q11 -11 25 -29.5t29.5 -41t31 -47.5t30.5 -50q34 -58 70 -126h-237zM251 415h78q31 0 54.5 17.5t23.5 55.5t-25 56t-60 18h-71v-147z" />
    <glyph glyph-name="S" unicode="S" horiz-adv-x="591" 
d="M244 527q0 -23 23 -39t58 -31.5t75.5 -33t75.5 -43.5t58 -63.5t23 -91.5q0 -55 -17 -99t-51.5 -75t-88 -48t-125.5 -17q-39 0 -70.5 4.5t-59 12.5t-53.5 18.5t-55 23.5v185h10q43 -35 92 -57t117 -22q91 0 91 55q0 23 -23 39.5t-58 33t-75.5 34.5t-75.5 44.5t-58 64
t-23 91.5q0 106 66.5 167.5t201.5 61.5q63 0 115.5 -15t107.5 -41v-181h-10q-39 34 -86 53t-109 19q-38 0 -57 -14t-19 -36z" />
    <glyph glyph-name="T" unicode="T" horiz-adv-x="610" 
d="M403 561v-561h-196v561h-203v166h602v-166h-203z" />
    <glyph glyph-name="U" unicode="U" horiz-adv-x="740" 
d="M685 281q0 -69 -17.5 -123.5t-55 -92.5t-98 -58.5t-145.5 -20.5q-82 0 -140.5 19.5t-96 56.5t-56 91.5t-21.5 125.5v448h196v-409q0 -38 5 -69t18 -52.5t36 -33.5t59 -12t59.5 11t36.5 32.5t18 52.5t5 70v410h197v-446v0z" />
    <glyph glyph-name="V" unicode="V" horiz-adv-x="780" 
d="M772 727l-280 -727h-204l-280 727h216q35 -80 67 -163q13 -35 27 -74t26.5 -79t23 -79.5t17.5 -75.5h10q7 36 18 75.5t23.5 79.5t26.5 79t27 74q31 83 66 163h216z" />
    <glyph glyph-name="W" unicode="W" horiz-adv-x="1044" 
d="M863 0h-227q-24 82 -45 159q-9 33 -18.5 67.5t-18 68t-16 63.5t-11.5 54h-10q-5 -24 -12 -54t-15.5 -63.5t-18 -68t-18.5 -67.5q-21 -77 -45 -159h-227l-171 727h213l63 -329q8 -35 13.5 -75.5t9.5 -68.5h10q7 28 16 68t19 73l84 332h169l85 -332q9 -33 17.5 -73
t15.5 -68h10q5 28 10.5 68.5t13.5 75.5l62 329h213z" />
    <glyph glyph-name="X" unicode="X" horiz-adv-x="795" 
d="M517 367l271 -367h-241q-40 54 -80.5 111.5t-66.5 105.5h-10q-29 -51 -69 -107.5t-79 -109.5h-235l272 362l-266 365h238q41 -57 78 -110.5t66 -104.5h10q6 10 14 23t24 36.5t42.5 61t68.5 94.5h234z" />
    <glyph glyph-name="Y" unicode="Y" horiz-adv-x="773" 
d="M766 727l-281 -462v-265h-196v265l-282 462h232q29 -48 55 -96q23 -41 47 -87.5t40 -84.5h10q16 37 41 83t49 88q28 48 58 97h227z" />
    <glyph glyph-name="Z" unicode="Z" horiz-adv-x="687" 
d="M665 0h-643v140l353 421h-339v166h618v-137l-357 -425h368v-165v0z" />
    <glyph glyph-name="bracketleft" unicode="[" horiz-adv-x="409" 
d="M387 -200h-335v965h335v-166h-139v-633h139v-166z" />
    <glyph glyph-name="backslash" unicode="\" horiz-adv-x="551" 
d="M202 760l349 -908h-201l-350 908h202z" />
    <glyph glyph-name="bracketright" unicode="]" horiz-adv-x="409" 
d="M22 -34h139v633h-139v166h335v-965h-335v166z" />
    <glyph glyph-name="asciicircum" unicode="^" horiz-adv-x="787" 
d="M394 497l-138 -241h-243l280 471h201l280 -471h-242z" />
    <glyph glyph-name="underscore" unicode="_" horiz-adv-x="640" 
d="M640 -146h-640v58h640v-58z" />
    <glyph glyph-name="grave" unicode="`" horiz-adv-x="639" 
d="M345 613l-178 192h170l134 -192h-126z" />
    <glyph glyph-name="a" unicode="a" horiz-adv-x="640" 
d="M266 561q83 0 143.5 -14t99.5 -45t57.5 -81t18.5 -122v-299h-191l-7 76h-10q-25 -42 -63.5 -66t-96.5 -24q-46 0 -81 14t-58 38.5t-35 58.5t-12 74t12 73.5t35 58.5t58 39t81 14q56 0 95 -17.5t67 -51.5h10v12q0 39 -13.5 64.5t-36.5 40t-53.5 20.5t-64.5 6
q-41 0 -79 -13t-61 -36h-10v133q19 13 43.5 22.5t50.5 14.5t52 7.5t49 2.5zM315 118q36 0 56.5 16.5t20.5 45.5t-20.5 45t-56.5 16t-55 -16t-19 -45t19 -45.5t55 -16.5z" />
    <glyph glyph-name="b" unicode="b" horiz-adv-x="671" 
d="M251 765v-330h10q48 126 174 126q50 0 88 -22t64 -60t39.5 -91t13.5 -114q0 -62 -13.5 -115t-39.5 -91.5t-64 -60t-88 -21.5q-63 0 -107.5 31.5t-67.5 93.5h-10l-7 -111h-188v765h196zM337 396q-42 0 -65.5 -31.5t-23.5 -90.5q0 -61 23.5 -92t65.5 -31q43 0 68 31t25 92
q0 59 -25 90.5t-68 31.5z" />
    <glyph glyph-name="c" unicode="c" horiz-adv-x="470" 
d="M274 561q50 0 94.5 -9.5t76.5 -37.5v-161h-10q-13 22 -34.5 30.5t-48.5 8.5q-53 0 -82 -30t-29 -88q0 -60 29 -90.5t82 -30.5q26 0 47.5 8.5t35.5 29.5h10v-158q-32 -28 -76.5 -37.5t-94.5 -9.5q-118 0 -180.5 75t-62.5 213q0 137 62.5 212t180.5 75z" />
    <glyph glyph-name="d" unicode="d" horiz-adv-x="671" 
d="M616 765v-765h-188l-7 111h-10q-48 -125 -175 -125q-50 0 -88 21.5t-64 60t-39.5 91t-13.5 115.5q0 61 13.5 114t39.5 91t64 60t88 22q126 0 174 -126h10v330h196zM334 396q-43 0 -68 -31.5t-25 -90.5q0 -61 25 -92t68 -31t66 31t23 92q0 59 -23 90.5t-66 31.5z" />
    <glyph glyph-name="e" unicode="e" horiz-adv-x="612" 
d="M307 561q63 0 114 -18.5t87 -53t56 -84t20 -111.5v-44h-342q5 -54 42 -78.5t90 -24.5q62 0 98.5 10.5t59.5 33.5h10v-158q-17 -14 -41.5 -23t-53 -14.5t-58.5 -7.5t-57 -2q-72 0 -128 15t-94.5 48.5t-58.5 86.5t-20 128q0 154 71 225.5t205 71.5zM321 419q-36 0 -57 -27
t-23 -74h159q-1 47 -22.5 74t-56.5 27z" />
    <glyph glyph-name="f" unicode="f" horiz-adv-x="403" 
d="M425 613h-10q-13 15 -30 25t-41 10q-38 0 -57.5 -23.5t-19.5 -77.5h143v-95h-143v-452h-196v452h-51v95h51v14q0 59 21.5 100.5t55 67.5t75 38t82.5 12q47 0 73.5 -6t46.5 -17v-143z" />
    <glyph glyph-name="g" unicode="g" horiz-adv-x="658" 
d="M603 547v-509q0 -69 -18 -120t-57.5 -84.5t-102 -49.5t-152.5 -16q-24 0 -51 3t-53.5 9t-51 16t-43.5 25v136h10q22 -24 61.5 -41t84.5 -17q37 0 69 10t56 28.5t38 46t14 62.5v92h-10q-46 -124 -171 -124q-46 0 -82.5 21.5t-61.5 58.5t-38 87t-13 106t13.5 105.5t39 87
t61.5 59.5t81 22q64 0 106.5 -32t65.5 -94h10q0 7 1 22.5t2.5 33t2.5 33.5t1 23h188zM322 179q42 0 65.5 28.5t23.5 79.5q0 49 -23.5 79t-65.5 30q-38 0 -59.5 -30t-21.5 -79q0 -51 22 -79.5t59 -28.5z" />
    <glyph glyph-name="h" unicode="h" horiz-adv-x="644" 
d="M431 561q46 0 76.5 -15t48.5 -44.5t25.5 -72t7.5 -96.5v-333h-196v308q0 45 -14 66.5t-51 21.5q-38 0 -57.5 -29t-19.5 -81v-286h-196v765h196v-329h10q11 25 28 48t38.5 40t48 27t55.5 10z" />
    <glyph glyph-name="i" unicode="i" horiz-adv-x="306" 
d="M251 0h-196v547h196v-547zM262 687q0 -19 -8.5 -35.5t-23 -29t-34.5 -19.5t-42 -7q-23 0 -42.5 7t-34 19.5t-23 29t-8.5 35.5t8.5 35.5t23 29t34 20t42.5 7.5q22 0 42 -7.5t34.5 -20t23 -29t8.5 -35.5z" />
    <glyph glyph-name="j" unicode="j" horiz-adv-x="314" 
d="M160 779q22 0 41.5 -7.5t34 -20t23 -29t8.5 -35.5t-8.5 -35.5t-23 -29t-34 -19.5t-41.5 -7q-23 0 -42.5 7t-34 19.5t-23 29t-8.5 35.5t8.5 35.5t23 29t34 20t42.5 7.5zM-96 -66h10q13 -15 30 -25t41 -10q38 0 57.5 23.5t19.5 77.5v547h196v-561q0 -59 -21.5 -100.5
t-55 -67.5t-75 -38t-82.5 -12q-47 0 -73.5 6t-46.5 17v143z" />
    <glyph glyph-name="k" unicode="k" horiz-adv-x="666" 
d="M55 0v765h196v-289q0 -14 -0.5 -31t-1.5 -33.5t-2.5 -31t-2.5 -23.5h10q35 45 71 97.5t71 92.5h247q-57 -59 -113 -117.5t-113 -117.5l249 -312h-254q-32 44 -63.5 87.5t-63.5 87.5l-34 -36v-139h-196z" />
    <glyph glyph-name="l" unicode="l" horiz-adv-x="306" 
d="M251 0h-196v765h196v-765z" />
    <glyph glyph-name="m" unicode="m" horiz-adv-x="961" 
d="M751 561q43 0 72.5 -15t48 -44t26.5 -71.5t8 -97.5v-333h-196v308q0 39 -12 63.5t-47 24.5q-42 0 -57.5 -33t-15.5 -96v-267h-196v308q0 39 -12 63.5t-44 24.5q-42 0 -58.5 -34t-16.5 -95v-267h-196v547h187l8 -111h10q10 25 27 48t38 40t46 27t53 10q65 0 98.5 -28.5
t45.5 -97.5h10q21 62 68.5 94t104.5 32z" />
    <glyph glyph-name="n" unicode="n" horiz-adv-x="644" 
d="M431 561q46 0 76.5 -15t48.5 -44.5t25.5 -72t7.5 -96.5v-333h-196v307q0 40 -15 64.5t-50 24.5q-38 0 -57.5 -30.5t-19.5 -83.5v-282h-196v547h187l8 -111h10q10 25 27.5 48t39.5 40t48.5 27t55.5 10z" />
    <glyph glyph-name="o" unicode="o" horiz-adv-x="676" 
d="M435 275q0 60 -26.5 90.5t-71.5 30.5t-70.5 -30.5t-25.5 -90.5q0 -62 25.5 -93t70.5 -31t71.5 31t26.5 93zM645 274q0 -78 -23 -132.5t-63.5 -89t-97 -50.5t-123.5 -16q-68 0 -124 16t-97 50.5t-63.5 89t-22.5 132.5q0 77 22.5 131.5t63.5 89t97 50.5t124 16
q67 0 123.5 -16t97 -50.5t63.5 -89t23 -131.5z" />
    <glyph glyph-name="p" unicode="p" horiz-adv-x="671" 
d="M55 -218v765h188l7 -112h10q48 126 175 126q50 0 88 -22t64 -60.5t39.5 -91t13.5 -114.5t-13.5 -114.5t-39.5 -91t-64 -60t-88 -21.5q-126 0 -174 125h-10v-329h-196zM337 151q43 0 68 31t25 91t-25 91.5t-68 31.5q-42 0 -65.5 -31.5t-23.5 -91.5t23.5 -91t65.5 -31z" />
    <glyph glyph-name="q" unicode="q" horiz-adv-x="671" 
d="M420 -218v329h-10q-48 -125 -174 -125q-50 0 -88 21.5t-64 59.5t-39.5 91t-13.5 115t13.5 114.5t39.5 91t64 60.5t88 22q127 0 175 -126h10l7 112h188v-765h-196zM334 151q43 0 66 31t23 91t-23 91.5t-66 31.5t-68 -31.5t-25 -91.5t25 -91t68 -31z" />
    <glyph glyph-name="r" unicode="r" horiz-adv-x="473" 
d="M434 561q10 0 19.5 -1.5t14.5 -2.5v-38t-0.5 -57t-0.5 -57v-37h-10q-6 7 -30.5 15.5t-71.5 8.5q-51 0 -77.5 -28.5t-26.5 -80.5v-283h-196v547h187l8 -112h10q11 25 28.5 48t40 40.5t49.5 27.5t56 10z" />
    <glyph glyph-name="s" unicode="s" horiz-adv-x="496" 
d="M468 171q0 -48 -19 -83t-52 -57.5t-76.5 -33.5t-92.5 -11q-36 0 -65 5t-52.5 13t-43.5 17.5t-39 19.5v138h10q20 -26 58 -42.5t96 -16.5q11 0 23 1t21.5 5t15.5 11t6 18q0 14 -16.5 26t-40.5 25.5t-53 29t-53 37t-40.5 49t-16.5 65.5q0 47 18.5 81t50 56t74 32.5
t90.5 10.5t90.5 -15.5t77.5 -37.5v-137h-10q-24 30 -52 45t-75 15q-18 0 -36 -7.5t-18 -24.5q0 -14 16.5 -26t40.5 -25t53 -29t53 -37.5t40.5 -50t16.5 -66.5z" />
    <glyph glyph-name="t" unicode="t" horiz-adv-x="454" 
d="M444 9q-21 -10 -56 -16.5t-81 -6.5q-41 0 -83 10t-76 34t-55 64t-21 99v258h-51v96h51l12 142h184v-142h160v-96h-160v-250q0 -23 4 -38t14 -23.5t26.5 -11.5t41.5 -3q24 0 45 7.5t35 19.5h10v-143z" />
    <glyph glyph-name="u" unicode="u" horiz-adv-x="643" 
d="M212 -14q-46 0 -76.5 15t-48.5 44.5t-25.5 72t-7.5 96.5v333h196v-309q0 -42 14 -65t51 -23q38 0 57.5 30.5t19.5 83.5v283h196v-547h-187l-8 110h-10q-11 -26 -28 -48.5t-39 -39t-48.5 -26.5t-55.5 -10z" />
    <glyph glyph-name="v" unicode="v" horiz-adv-x="605" 
d="M597 547l-196 -547h-197l-196 547h202q3 -8 14 -37.5t24.5 -73.5t26.5 -100t22 -117h10q7 55 18.5 104.5t24 92t24.5 76t21 55.5h202z" />
    <glyph glyph-name="w" unicode="w" horiz-adv-x="871" 
d="M858 547l-131 -547h-205q-3 8 -13 36t-22 71.5t-25 99.5t-22 119h-10q-8 -62 -20.5 -118t-25.5 -100t-23 -72.5t-13 -35.5h-204l-131 547h202q2 -8 7.5 -35.5t12.5 -70t14 -99t13 -123.5h10q9 52 20 101.5t22.5 92.5t22 77t18.5 57h161q3 -8 12 -37.5t21 -74t24.5 -100.5
t23.5 -116h10q6 66 13.5 122.5t14.5 99.5t13 70.5t8 35.5h202z" />
    <glyph glyph-name="x" unicode="x" horiz-adv-x="633" 
d="M420 286q51 -72 102 -143t103 -143h-220q-25 34 -46.5 69.5t-41.5 72.5h-10q-17 -35 -38.5 -69.5t-48.5 -72.5h-212q50 70 99.5 139.5t100.5 139.5l-193 268h222q20 -29 32.5 -49.5t20.5 -34.5t12.5 -23.5t8.5 -16.5h10q18 32 34.5 62t41.5 62h210l-187 -261v0z" />
    <glyph glyph-name="y" unicode="y" horiz-adv-x="605" 
d="M597 547l-279 -765h-193l81 218l-198 547h203q3 -8 13.5 -38t23.5 -74.5t26.5 -100t21.5 -115.5h10q4 24 11 56t16.5 66.5t19 68.5t18 62.5t15 48.5t8.5 26h203z" />
    <glyph glyph-name="z" unicode="z" horiz-adv-x="554" 
d="M529 0h-504v95l240 331h-234v120h492v-91l-243 -334h249v-121z" />
    <glyph glyph-name="braceleft" unicode="{" horiz-adv-x="506" 
d="M472 -197q-67 0 -127 5t-105.5 25t-72 59.5t-26.5 108.5v18q0 58 -5 93t-18.5 54t-36.5 25t-59 6v168q32 0 54.5 6t37 21t21 41.5t6.5 67.5v73q0 69 27 107t72.5 55.5t105.5 21t126 3.5v-166q-67 0 -98 -30t-31 -101v-14q0 -34 -9.5 -59t-27.5 -44.5t-44 -34t-59 -26.5
v-10q33 -12 59 -26.5t44 -33.5t27.5 -44.5t9.5 -59.5v-14q0 -70 31 -99.5t98 -29.5v-166z" />
    <glyph glyph-name="bar" unicode="|" horiz-adv-x="312" 
d="M257 -218h-202v983h202v-983z" />
    <glyph glyph-name="braceright" unicode="}" horiz-adv-x="506" 
d="M34 -31q68 0 98.5 29.5t30.5 99.5v14q0 34 9.5 59.5t27.5 44.5t44.5 33.5t59.5 26.5v10q-33 12 -59.5 26.5t-44.5 34t-27.5 44.5t-9.5 59v14q0 71 -30.5 101t-98.5 30v166q66 0 126 -3t105.5 -20.5t72.5 -55.5t27 -108v-73q0 -41 6.5 -67.5t20.5 -41.5t37 -21t55 -6v-168
q-38 0 -61 -6.5t-36 -27.5t-17.5 -59.5t-4.5 -102.5q0 -71 -27 -110.5t-73 -59t-105.5 -24t-125.5 -4.5v166z" />
    <glyph glyph-name="asciitilde" unicode="~" horiz-adv-x="690" 
d="M28 196q0 61 16.5 107.5t45.5 78.5t68.5 48.5t86.5 16.5q40 0 70.5 -14.5t54 -31.5t40.5 -31.5t29 -14.5q21 0 34 22.5t13 71.5h176q0 -63 -16.5 -110t-45.5 -78.5t-68.5 -47.5t-86.5 -16q-40 0 -71 14.5t-54 32t-40 32t-29 14.5q-21 0 -34.5 -22.5t-13.5 -71.5h-175v0z
" />
    <glyph glyph-name="exclamdown" unicode="&#xa1;" horiz-adv-x="313" 
d="M56 473q0 36 29 60.5t71 24.5q21 0 39 -6.5t31.5 -18t21.5 -27t8 -33.5q0 -17 -8 -32.5t-21.5 -27t-31.5 -18.5t-39 -7t-39.5 7t-32 18.5t-21 27t-7.5 32.5zM55 -201q5 134 9.5 265.5t9.5 265.5h161l20 -531h-200z" />
    <glyph glyph-name="cent" unicode="&#xa2;" horiz-adv-x="469" 
d="M351 394q-52 0 -81 -31t-29 -89q0 -60 28.5 -91t81.5 -31q24 0 49.5 9.5t33.5 29.5h10v-158q-22 -20 -49.5 -29.5t-59.5 -14.5v-125h-131v129q-90 19 -131.5 90t-41.5 191q0 118 41.5 189t131.5 90v135h131v-131q32 -5 59.5 -14.5t49.5 -28.5v-161h-10q-8 22 -31.5 31.5
t-51.5 9.5z" />
    <glyph glyph-name="sterling" unicode="&#xa3;" horiz-adv-x="627" 
d="M593 166v-166h-513v289h-61v146h61v20q0 62 17 113.5t53 88t91 57t132 20.5q55 0 101 -12.5t99 -36.5v-189h-10q-37 34 -79.5 53t-102.5 19q-51 0 -78 -30t-27 -73v-30h222v-146h-222v-123h317z" />
    <glyph glyph-name="currency" unicode="&#xa4;" 
d="M527 10l-55 57q-61 -34 -131 -34q-33 0 -66 8.5t-63 25.5l-56 -56l-114 114l56 55q-34 61 -34 131q0 33 8 66t25 62l-55 56l114 115l56 -56q62 34 129 34q68 0 131 -34l55 56l115 -114l-57 -56q34 -62 34 -130q0 -67 -34 -129l57 -57zM422 391q-35 33 -81 33
q-44 0 -80 -33q-33 -35 -33 -81q0 -22 8 -42.5t25 -37.5t37.5 -25t42.5 -8t43 8t38 25t25 37.5t8 42.5q0 46 -33 81z" />
    <glyph glyph-name="yen" unicode="&#xa5;" horiz-adv-x="771" 
d="M576 435h110v-146h-202v-289h-196v289h-227v146h134l-188 292h231q28 -48 54 -96q23 -42 46.5 -89t40.5 -85h14q17 38 41.5 84.5t47.5 88.5q27 48 56 97h226z" />
    <glyph glyph-name="brokenbar" unicode="&#xa6;" horiz-adv-x="312" 
d="M257 322h-202v443h202v-443zM257 -218h-202v443h202v-443z" />
    <glyph glyph-name="section" unicode="&#xa7;" horiz-adv-x="577" 
d="M437 141q38 -23 64.5 -54.5t26.5 -81.5q0 -104 -70.5 -158t-191.5 -54q-38 0 -68 4.5t-56 12.5t-49 18.5t-47 21.5v161h17q31 -29 70 -48.5t102 -19.5q34 0 56.5 10t22.5 35q0 18 -21 28.5t-53 19.5t-69 19.5t-69 29t-53 47.5t-21 76q0 66 32 113.5t83 80.5
q-40 23 -67 54.5t-27 81.5t17.5 88t50.5 64t79.5 39.5t104.5 13.5q55 0 103.5 -15.5t93.5 -39.5v-159h-18q-16 16 -31.5 28t-33 20t-38.5 12.5t-48 4.5t-46.5 -10.5t-19.5 -29.5q0 -18 21 -28t53 -18.5t69 -19t69 -28.5t53 -47.5t21 -76.5q0 -64 -31 -112.5t-81 -82.5z
M215 268q0 -22 19 -35.5t48 -25.5q10 3 23.5 8.5t26 13.5t21.5 19.5t9 26.5q0 22 -20 35.5t-51 26.5q-8 -3 -20.5 -9t-25 -14.5t-21.5 -20t-9 -25.5z" />
    <glyph glyph-name="dieresis" unicode="&#xa8;" horiz-adv-x="639" 
d="M278 710q0 -35 -24.5 -59.5t-59.5 -24.5t-59 24.5t-24 59.5q0 34 24 58.5t59 24.5t59.5 -24.5t24.5 -58.5zM444 793q18 0 33 -6.5t26.5 -18t18 -26.5t6.5 -32t-6.5 -32.5t-18 -27t-26.5 -18t-33 -6.5q-35 0 -59 24.5t-24 59.5q0 34 24 58.5t59 24.5z" />
    <glyph glyph-name="copyright" unicode="&#xa9;" horiz-adv-x="818" 
d="M787 364q0 -78 -29.5 -147t-81 -120.5t-120.5 -81t-147 -29.5t-147 29.5t-120.5 81t-81 120.5t-29.5 147q0 79 29.5 148t81 120t120.5 80.5t147 29.5t147 -29.5t120.5 -80.5t81 -120t29.5 -148zM409 650q-60 0 -112 -22.5t-90.5 -61.5t-61 -91t-22.5 -111t22.5 -111.5
t61 -91.5t90.5 -61.5t112 -22.5q59 0 111 22.5t91 61.5t61.5 91.5t22.5 111.5t-22.5 111t-61.5 91t-91 61.5t-111 22.5zM428 482q-23 0 -41 -9.5t-31 -26t-19.5 -38t-6.5 -45.5q0 -23 6.5 -44t19.5 -38t31 -27t41 -10q34 0 51 11.5t36 32.5h16v-119q-29 -11 -52.5 -16.5
t-49.5 -5.5q-106 0 -164.5 58t-58.5 158q0 45 14.5 84.5t43 69t70 46t95.5 16.5q26 0 49.5 -4.5t52.5 -15.5v-121h-16q-19 21 -37 32.5t-50 11.5z" />
    <glyph glyph-name="ordfeminine" unicode="&#xaa;" horiz-adv-x="345" 
d="M149 644q92 0 134.5 -29.5t42.5 -101.5v-149h-110l-5 42q-12 -23 -34.5 -36t-54.5 -13q-50 0 -76.5 26t-26.5 66t26.5 66.5t76.5 26.5q63 0 92 -39v8q0 38 -26.5 52t-64.5 14q-21 0 -41.5 -6.5t-34.5 -17.5h-5v68q21 14 51.5 18.5t55.5 4.5zM172 418q20 0 31 8t11 22
t-11 21.5t-31 7.5q-40 0 -40 -29q0 -14 10 -22t30 -8z" />
    <glyph glyph-name="guillemotleft" unicode="&#xab;" horiz-adv-x="845" 
d="M462 0h-231l-203 273l203 274h231l-203 -274zM817 0h-230l-203 273l203 274h230l-203 -274z" />
    <glyph glyph-name="logicalnot" unicode="&#xac;" 
d="M640 23h-167v217h-429v164h596v-381z" />
    <glyph glyph-name="uni00AD" unicode="&#xad;" horiz-adv-x="422" 
d="M394 248h-366v140h366v-140z" />
    <glyph glyph-name="registered" unicode="&#xae;" horiz-adv-x="818" 
d="M787 364q0 -78 -29.5 -147t-81 -120.5t-120.5 -81t-147 -29.5t-147 29.5t-120.5 81t-81 120.5t-29.5 147q0 79 29.5 148t81 120t120.5 80.5t147 29.5t147 -29.5t120.5 -80.5t81 -120t29.5 -148zM409 650q-60 0 -112 -22.5t-90.5 -61.5t-61 -91t-22.5 -111t22.5 -111.5
t61 -91.5t90.5 -61.5t112 -22.5q59 0 111 22.5t91 61.5t61.5 91.5t22.5 111.5t-22.5 111t-61.5 91t-91 61.5t-111 22.5zM467 167l-76 135h-29v-135h-113v392h148q33 0 63.5 -6t54 -20.5t37 -39t13.5 -60.5q0 -42 -18 -67t-51 -40q14 -14 32.5 -41t34.5 -53q18 -31 37 -65
h-133zM362 391h41q14 0 28.5 10t14.5 28q0 21 -13.5 30t-33.5 9h-37v-77z" />
    <glyph glyph-name="macron" unicode="&#xaf;" horiz-adv-x="639" 
d="M520 654h-402v111h402v-111v0z" />
    <glyph glyph-name="degree" unicode="&#xb0;" horiz-adv-x="424" 
d="M408 545q0 -41 -15 -76.5t-41.5 -62t-62.5 -41.5t-77 -15t-77 15t-62.5 41t-41.5 61.5t-15 77.5q0 41 15.5 76.5t42 62t62 41.5t76.5 15t76.5 -15t62 -41.5t42 -62t15.5 -76.5zM293 545q0 35 -23 59t-58 24t-57.5 -24t-22.5 -59q0 -36 23.5 -59.5t56.5 -23.5q35 0 58 24
t23 59z" />
    <glyph glyph-name="plusminus" unicode="&#xb1;" 
d="M641 7h-597v162h216v135h-216v161h216v219h165v-219h216v-161h-216v-135h216v-162z" />
    <glyph glyph-name="uni00B2" unicode="&#xb2;" horiz-adv-x="403" 
d="M366 565v-85h-323v83q45 30 70.5 49t45.5 35q11 9 23 18.5t21.5 20t16 22t6.5 24.5q0 16 -13 24.5t-35 8.5q-35 0 -60.5 -9.5t-48.5 -26.5h-13v93q32 13 62.5 21t65.5 8q80 0 126 -30t46 -81q0 -33 -21.5 -67.5t-77.5 -65.5q-16 -10 -35 -20t-45 -22h189z" />
    <glyph glyph-name="uni00B3" unicode="&#xb3;" horiz-adv-x="370" 
d="M231 677q28 -3 47.5 -11.5t32 -21t18.5 -27t6 -28.5q0 -29 -14 -50.5t-37 -36t-54 -22t-64 -7.5q-23 0 -40.5 2t-32.5 6t-29 9.5t-29 12.5v94h12q12 -9 23.5 -16t24 -12.5t27 -8.5t33.5 -3q23 0 37 9.5t14 29.5q0 37 -69 37h-45v67h41q32 0 48 11t16 27q0 13 -14.5 20
t-32.5 7t-30.5 -2.5t-23 -7t-20 -11t-21.5 -15.5h-13v93q32 13 61.5 21t64.5 8q27 0 55 -4.5t51.5 -15t38 -28.5t14.5 -44q0 -25 -22.5 -48t-73.5 -34z" />
    <glyph glyph-name="acute" unicode="&#xb4;" horiz-adv-x="639" 
d="M167 613l134 192h170l-178 -192h-126z" />
    <glyph glyph-name="mu" unicode="&#xb5;" horiz-adv-x="647" 
d="M54 547h200v-306q0 -44 12.5 -66t49.5 -22q38 0 57 29t19 81v284h200v-547h-191l-9 126q-5 -24 -13 -47t-19.5 -40.5t-26.5 -28t-33 -10.5q-11 0 -27.5 3.5t-27.5 11.5l9 -216h-200v748z" />
    <glyph glyph-name="paragraph" unicode="&#xb6;" 
d="M589 595v-772h-124v772h-87v-772h-123v467q-50 0 -91.5 16.5t-71 45.5t-45.5 70t-16 91q0 51 16 90.5t45 67t70.5 42t92.5 14.5h398v-132h-64z" />
    <glyph glyph-name="periodcentered" unicode="&#xb7;" horiz-adv-x="292" 
d="M246 304q0 -18 -8 -33.5t-21.5 -27t-31.5 -18t-39 -6.5t-39 6.5t-31.5 18t-21.5 27t-8 33.5q0 17 8 32.5t21.5 27t31.5 18.5t39 7t39 -7t31.5 -18.5t21.5 -27t8 -32.5z" />
    <glyph glyph-name="cedilla" unicode="&#xb8;" horiz-adv-x="639" 
d="M463 -79q0 -40 -12.5 -69t-35 -47.5t-53.5 -27.5t-68 -9q-29 0 -47.5 3t-44.5 11v105h15q19 -8 31 -12.5t37 -4.5q35 0 48 11t13 43q0 14 -1 27.5t-2 24.5q-2 12 -3 24h116q1 -16 3 -30q2 -13 3 -26t1 -23z" />
    <glyph glyph-name="uni00B9" unicode="&#xb9;" horiz-adv-x="336" 
d="M276 843v-363h-123v212q-7 -11 -21.5 -24t-31.5 -25.5t-33 -23t-26 -16.5h-11v104q25 13 52 32q23 17 51 42.5t57 61.5h86z" />
    <glyph glyph-name="ordmasculine" unicode="&#xba;" horiz-adv-x="371" 
d="M352 501q0 -39 -12 -66.5t-34 -44.5t-53 -25t-68 -8q-36 0 -66.5 8t-52.5 25t-34.5 44.5t-12.5 66.5q0 76 46.5 109.5t119.5 33.5q37 0 68 -8t53 -25.5t34 -44.5t12 -65zM185 559q-22 0 -34.5 -14.5t-12.5 -43.5t12.5 -44.5t34.5 -15.5q49 0 49 60q0 58 -49 58z" />
    <glyph glyph-name="guillemotright" unicode="&#xbb;" horiz-adv-x="845" 
d="M587 273l-203 274h230l203 -274l-203 -273h-230zM231 273l-203 274h231l203 -274l-203 -273h-231z" />
    <glyph glyph-name="onequarter" unicode="&#xbc;" horiz-adv-x="847" 
d="M740 727l-461 -727h-110l461 727h110zM322 727v-363h-123v212q-7 -11 -21.5 -24t-31.5 -25.5t-33 -23t-26 -16.5h-11v104q25 13 52 32q23 17 51 42.5t57 61.5h86zM829 156v-72h-57v-84h-123v84h-178v87l185 192h116v-207h57zM649 232v17.5t1 15.5l2 16l-85 -127q5 0 11 1
q5 0 12 0.5t16 0.5h43v76z" />
    <glyph glyph-name="onehalf" unicode="&#xbd;" horiz-adv-x="906" 
d="M886 85v-85h-323v83q45 30 70.5 49t45.5 35q11 9 23 18.5t21.5 20t16 22t6.5 24.5q0 16 -13 24.5t-35 8.5q-35 0 -60.5 -9.5t-48.5 -26.5h-13v93q32 13 62.5 21t65.5 8q80 0 126 -30t46 -81q0 -33 -21.5 -67.5t-77.5 -65.5q-16 -10 -35 -20t-45 -22h189zM322 727v-363
h-123v212q-7 -11 -21.5 -24t-31.5 -25.5t-33 -23t-26 -16.5h-11v104q25 13 52 32q23 17 51 42.5t57 61.5h86zM740 727l-461 -727h-110l461 727h110z" />
    <glyph glyph-name="threequarters" unicode="&#xbe;" horiz-adv-x="848" 
d="M241 561q28 -3 47.5 -11.5t32 -21t18.5 -27t6 -28.5q0 -29 -14 -50.5t-37 -36t-54 -22t-64 -7.5q-23 0 -40.5 2t-32.5 6t-29 9.5t-29 12.5v94h12q12 -9 23.5 -16t24 -12.5t27 -8.5t33.5 -3q23 0 37 9.5t14 29.5q0 37 -69 37h-45v67h41q32 0 48 11t16 27q0 13 -14.5 20
t-32.5 7t-30.5 -2.5t-23 -7t-20 -11t-21.5 -15.5h-13v93q32 13 61.5 21t64.5 8q27 0 55 -4.5t51.5 -15t38 -28.5t14.5 -44q0 -25 -22.5 -48t-73.5 -34zM722 727l-461 -727h-110l461 727h110zM823 156v-72h-57v-84h-123v84h-178v87l185 192h116v-207h57zM643 232v17.5t1 15.5
l2 16l-85 -127q5 0 11 1q5 0 12 0.5t16 0.5h43v76z" />
    <glyph glyph-name="questiondown" unicode="&#xbf;" horiz-adv-x="564" 
d="M232 473q0 36 25 60.5t60 24.5q36 0 61 -24.5t25 -60.5q0 -17 -6.5 -32.5t-18.5 -27t-27.5 -18.5t-33.5 -7t-33.5 7t-27 18.5t-18 27t-6.5 32.5zM320 -207q-66 0 -119.5 13.5t-91 38.5t-58 59t-20.5 76q0 27 8.5 53.5t28 53t51.5 52.5t79 51q1 1 6 3.5t10.5 5.5t10.5 5.5
l7 3.5q0 9 0.5 26.5t1 36.5t1.5 36.5t1 26.5h160q0 -12 1 -38.5t2 -56.5t2 -56.5t1 -38.5q-19 -11 -46 -24t-52 -29t-42.5 -35.5t-17.5 -44.5q0 -26 23.5 -39t62.5 -13q60 0 104.5 18.5t83.5 46.5h21v-183q-54 -23 -106 -35.5t-113 -12.5z" />
    <glyph glyph-name="Agrave" unicode="&#xc0;" horiz-adv-x="779" 
d="M500 156h-221q-19 -62 -33 -104.5t-18 -51.5h-220l280 727h203l280 -727h-221zM457 307q-19 66 -35.5 132.5t-27.5 120.5h-10q-11 -54 -27.5 -120.5t-34.5 -132.5h135zM383 793l-178 192h170l134 -192h-126z" />
    <glyph glyph-name="Aacute" unicode="&#xc1;" horiz-adv-x="779" 
d="M500 156h-221q-19 -62 -33 -104.5t-18 -51.5h-220l280 727h203l280 -727h-221zM457 307q-19 66 -35.5 132.5t-27.5 120.5h-10q-11 -54 -27.5 -120.5t-34.5 -132.5h135zM266 793l134 192h170l-178 -192h-126z" />
    <glyph glyph-name="Acircumflex" unicode="&#xc2;" horiz-adv-x="779" 
d="M500 156h-221q-19 -62 -33 -104.5t-18 -51.5h-220l280 727h203l280 -727h-221zM457 307q-19 66 -35.5 132.5t-27.5 120.5h-10q-11 -54 -27.5 -120.5t-34.5 -132.5h135zM475 793l-87 97l-85 -97h-161l163 192h170l163 -192h-163z" />
    <glyph glyph-name="Atilde" unicode="&#xc3;" horiz-adv-x="779" 
d="M500 156h-221q-19 -62 -33 -104.5t-18 -51.5h-220l280 727h203l280 -727h-221zM457 307q-19 66 -35.5 132.5t-27.5 120.5h-10q-11 -54 -27.5 -120.5t-34.5 -132.5h135zM615 985q-6 -88 -42.5 -140t-100.5 -52q-24 0 -46.5 10t-43 22t-39 22t-33.5 10q-20 0 -28 -17
t-10 -47h-112q1 43 12.5 78.5t30 60.5t44 39t55.5 14q23 0 45.5 -9.5t43.5 -21.5t39.5 -21.5t32.5 -9.5q20 0 28.5 17t9.5 45h114z" />
    <glyph glyph-name="Adieresis" unicode="&#xc4;" horiz-adv-x="779" 
d="M500 156h-221q-19 -62 -33 -104.5t-18 -51.5h-220l280 727h203l280 -727h-221zM457 307q-19 66 -35.5 132.5t-27.5 120.5h-10q-11 -54 -27.5 -120.5t-34.5 -132.5h135zM346 890q0 -35 -24.5 -59.5t-59.5 -24.5t-59 24.5t-24 59.5q0 34 24 58.5t59 24.5t59.5 -24.5
t24.5 -58.5zM512 973q18 0 33 -6.5t26.5 -18t18 -26.5t6.5 -32t-6.5 -32.5t-18 -27t-26.5 -18t-33 -6.5q-35 0 -59 24.5t-24 59.5q0 34 24 58.5t59 24.5z" />
    <glyph glyph-name="Aring" unicode="&#xc5;" horiz-adv-x="779" 
d="M533 823q0 -29 -11.5 -54t-30.5 -43l280 -726h-221l-50 156h-221q-19 -62 -33 -104.5t-18 -51.5h-220l279 726q-19 19 -30 43.5t-11 53.5q0 30 12 55t31.5 43t45.5 28.5t54 10.5q29 0 55 -10.5t46 -29.5t31.5 -44t11.5 -53zM457 307q-19 66 -35.5 132.5t-27.5 120.5h-10
q-11 -54 -27.5 -120.5t-34.5 -132.5h135zM445 822q0 25 -16 42.5t-40 17.5q-26 0 -40 -19t-14 -41q0 -25 15.5 -42t38.5 -17q26 0 41 18t15 41z" />
    <glyph glyph-name="AE" unicode="&#xc6;" horiz-adv-x="1096" 
d="M721 561v-105h309v-151h-309v-140h341v-165h-543v156h-206q-32 -62 -56 -104.5t-29 -51.5h-220l442 727h612v-166h-341zM519 306v279q-22 -57 -57 -131t-73 -148h130z" />
    <glyph glyph-name="Ccedilla" unicode="&#xc7;" horiz-adv-x="627" 
d="M494 -79q0 -40 -12.5 -69t-35 -47.5t-53.5 -27.5t-68 -9q-29 0 -47.5 3t-44.5 11v105h15q19 -8 31 -12.5t37 -4.5q35 0 48 11t13 43q0 19 -1 36t-3 28q-82 6 -145.5 35t-107 77.5t-66.5 115t-23 147.5q0 79 25.5 148.5t74.5 120.5t121.5 80.5t167.5 29.5q45 0 86.5 -8
t89.5 -27v-209h-10q-34 37 -72 58t-96 21q-41 0 -73.5 -17.5t-55.5 -47t-35.5 -68t-12.5 -81.5q0 -40 12.5 -78t35.5 -68t55.5 -48t73.5 -18q61 0 98.5 20.5t69.5 58.5h10v-208q-29 -11 -55.5 -18.5t-52.5 -12.5q2 -11 4 -33t2 -37z" />
    <glyph glyph-name="Egrave" unicode="&#xc8;" horiz-adv-x="632" 
d="M598 0h-543v727h543v-165h-347v-106h315v-151h-315v-140h347v-165zM319 793l-178 192h170l134 -192h-126z" />
    <glyph glyph-name="Eacute" unicode="&#xc9;" horiz-adv-x="632" 
d="M598 0h-543v727h543v-165h-347v-106h315v-151h-315v-140h347v-165zM203 793l134 192h170l-178 -192h-126z" />
    <glyph glyph-name="Ecircumflex" unicode="&#xca;" horiz-adv-x="632" 
d="M598 0h-543v727h543v-165h-347v-106h315v-151h-315v-140h347v-165zM580 793h-163l-87 97l-85 -97h-161l163 192h170z" />
    <glyph glyph-name="Edieresis" unicode="&#xcb;" horiz-adv-x="632" 
d="M55 0v727h543v-165h-347v-106h315v-151h-315v-140h347v-165h-543zM291 890q0 -35 -24.5 -59.5t-59.5 -24.5t-59 24.5t-24 59.5q0 34 24 58.5t59 24.5t59.5 -24.5t24.5 -58.5zM457 973q18 0 33 -6.5t26.5 -18t18 -26.5t6.5 -32t-6.5 -32.5t-18 -27t-26.5 -18t-33 -6.5
q-35 0 -59 24.5t-24 59.5q0 34 24 58.5t59 24.5z" />
    <glyph glyph-name="Igrave" unicode="&#xcc;" horiz-adv-x="306" 
d="M55 0v727h196v-727h-196zM149 793l-178 192h170l134 -192h-126z" />
    <glyph glyph-name="Iacute" unicode="&#xcd;" horiz-adv-x="306" 
d="M55 0v727h196v-727h-196zM27 793l134 192h170l-178 -192h-126z" />
    <glyph glyph-name="Icircumflex" unicode="&#xce;" horiz-adv-x="306" 
d="M55 0v727h196v-727h-196zM402 793h-163l-87 97l-85 -97h-161l163 192h170z" />
    <glyph glyph-name="Idieresis" unicode="&#xcf;" horiz-adv-x="306" 
d="M55 0v727h196v-727h-196zM111 890q0 -35 -24.5 -59.5t-59.5 -24.5t-59 24.5t-24 59.5q0 34 24 58.5t59 24.5t59.5 -24.5t24.5 -58.5zM277 973q18 0 33 -6.5t26.5 -18t18 -26.5t6.5 -32t-6.5 -32.5t-18 -27t-26.5 -18t-33 -6.5q-35 0 -59 24.5t-24 59.5q0 34 24 58.5
t59 24.5z" />
    <glyph glyph-name="Eth" unicode="&#xd0;" horiz-adv-x="758" 
d="M55 0v292h-54v139h54v296h250q103 0 181.5 -20t132 -64t81 -113t27.5 -167q0 -86 -22 -153t-72 -114t-130.5 -71.5t-196.5 -24.5h-251zM400 292h-149v-127h46q56 0 97.5 9.5t68.5 32.5t40.5 61.5t13.5 95.5q0 56 -12 93.5t-38.5 60.5t-68.5 33t-102 10h-45v-130h149v-139
z" />
    <glyph glyph-name="Ntilde" unicode="&#xd1;" horiz-adv-x="753" 
d="M500 0l-247 393h-10q2 -18 5 -54.5t3 -74.5v-264h-196v727h221q56 -88 110 -175t111 -175h10q-2 18 -3.5 53.5t-1.5 71.5v225h196v-727h-198zM602 985q-6 -88 -42.5 -140t-100.5 -52q-24 0 -46.5 10t-43 22t-39 22t-33.5 10q-20 0 -28 -17t-10 -47h-112q1 43 12.5 78.5
t30 60.5t44 39t55.5 14q23 0 45.5 -9.5t43.5 -21.5t39.5 -21.5t32.5 -9.5q20 0 28.5 17t9.5 45h114z" />
    <glyph glyph-name="Ograve" unicode="&#xd2;" horiz-adv-x="809" 
d="M778 363q0 -81 -22 -150.5t-68 -119.5t-116.5 -78.5t-166.5 -28.5q-92 0 -162 26.5t-117 75.5t-71 118.5t-24 156.5q0 81 22 150.5t68 120.5t116.5 79.5t167.5 28.5q92 0 161.5 -26.5t116.5 -76t71 -119.5t24 -157zM405 576q-78 0 -121 -56t-43 -157q0 -103 44.5 -157
t119.5 -54q74 0 118.5 54t44.5 157q0 101 -44 157t-119 56zM381 793l-178 192h170l134 -192h-126z" />
    <glyph glyph-name="Oacute" unicode="&#xd3;" horiz-adv-x="809" 
d="M778 363q0 -81 -22 -150.5t-68 -119.5t-116.5 -78.5t-166.5 -28.5q-92 0 -162 26.5t-117 75.5t-71 118.5t-24 156.5q0 81 22 150.5t68 120.5t116.5 79.5t167.5 28.5q92 0 161.5 -26.5t116.5 -76t71 -119.5t24 -157zM405 576q-78 0 -121 -56t-43 -157q0 -103 44.5 -157
t119.5 -54q74 0 118.5 54t44.5 157q0 101 -44 157t-119 56zM301 793l134 192h170l-178 -192h-126z" />
    <glyph glyph-name="Ocircumflex" unicode="&#xd4;" horiz-adv-x="809" 
d="M778 363q0 -81 -22 -150.5t-68 -119.5t-116.5 -78.5t-166.5 -28.5q-92 0 -162 26.5t-117 75.5t-71 118.5t-24 156.5q0 81 22 150.5t68 120.5t116.5 79.5t167.5 28.5q92 0 161.5 -26.5t116.5 -76t71 -119.5t24 -157zM405 576q-78 0 -121 -56t-43 -157q0 -103 44.5 -157
t119.5 -54q74 0 118.5 54t44.5 157q0 101 -44 157t-119 56zM494 793l-87 97l-85 -97h-161l163 192h170l163 -192h-163z" />
    <glyph glyph-name="Otilde" unicode="&#xd5;" horiz-adv-x="809" 
d="M778 363q0 -81 -22 -150.5t-68 -119.5t-116.5 -78.5t-166.5 -28.5q-92 0 -162 26.5t-117 75.5t-71 118.5t-24 156.5q0 81 22 150.5t68 120.5t116.5 79.5t167.5 28.5q92 0 161.5 -26.5t116.5 -76t71 -119.5t24 -157zM405 576q-78 0 -121 -56t-43 -157q0 -103 44.5 -157
t119.5 -54q74 0 118.5 54t44.5 157q0 101 -44 157t-119 56zM638 985q-6 -88 -42.5 -140t-100.5 -52q-24 0 -46.5 10t-43 22t-39 22t-33.5 10q-20 0 -28 -17t-10 -47h-112q1 43 12.5 78.5t30 60.5t44 39t55.5 14q23 0 45.5 -9.5t43.5 -21.5t39.5 -21.5t32.5 -9.5
q20 0 28.5 17t9.5 45h114z" />
    <glyph glyph-name="Odieresis" unicode="&#xd6;" horiz-adv-x="809" 
d="M778 363q0 -81 -22 -150.5t-68 -119.5t-116.5 -78.5t-166.5 -28.5q-92 0 -162 26.5t-117 75.5t-71 118.5t-24 156.5q0 81 22 150.5t68 120.5t116.5 79.5t167.5 28.5q92 0 161.5 -26.5t116.5 -76t71 -119.5t24 -157zM405 576q-78 0 -121 -56t-43 -157q0 -103 44.5 -157
t119.5 -54q74 0 118.5 54t44.5 157q0 101 -44 157t-119 56zM371 890q0 -35 -24.5 -59.5t-59.5 -24.5t-59 24.5t-24 59.5q0 34 24 58.5t59 24.5t59.5 -24.5t24.5 -58.5zM537 973q18 0 33 -6.5t26.5 -18t18 -26.5t6.5 -32t-6.5 -32.5t-18 -27t-26.5 -18t-33 -6.5
q-35 0 -59 24.5t-24 59.5q0 34 24 58.5t59 24.5z" />
    <glyph glyph-name="multiply" unicode="&#xd7;" 
d="M631 135l-114 -115l-175 176l-174 -176l-115 115l176 175l-176 175l115 114l174 -176l175 176l114 -114l-177 -176z" />
    <glyph glyph-name="Oslash" unicode="&#xd8;" horiz-adv-x="806" 
d="M775 363q0 -81 -22 -150.5t-67.5 -119.5t-116 -78.5t-166.5 -28.5q-76 0 -141 20l-22 -44h-91q2 5 7.5 15.5t11.5 22t11.5 22t8.5 15.5q-78 47 -117.5 130t-39.5 196q0 81 22 150.5t68 120.5t116 79.5t166 28.5q79 0 143 -22l24 45h91l-41 -77q78 -48 116.5 -130.5
t38.5 -194.5zM565 363q0 45 -10.5 81.5t-28.5 62.5l-181 -346q24 -10 58 -10q74 0 118 54.5t44 157.5zM403 576q-77 0 -119.5 -56t-42.5 -157q0 -48 11 -84.5t30 -62.5l182 348q-27 12 -61 12z" />
    <glyph glyph-name="Ugrave" unicode="&#xd9;" horiz-adv-x="740" 
d="M685 281q0 -69 -17.5 -123.5t-55 -92.5t-98 -58.5t-145.5 -20.5q-82 0 -140.5 19.5t-96 56.5t-56 91.5t-21.5 125.5v448h196v-409q0 -38 5 -69t18 -52.5t36 -33.5t59 -12t59.5 11t36.5 32.5t18 52.5t5 70v410h197v-446zM364 793l-178 192h170l134 -192h-126z" />
    <glyph glyph-name="Uacute" unicode="&#xda;" horiz-adv-x="740" 
d="M685 281q0 -69 -17.5 -123.5t-55 -92.5t-98 -58.5t-145.5 -20.5q-82 0 -140.5 19.5t-96 56.5t-56 91.5t-21.5 125.5v448h196v-409q0 -38 5 -69t18 -52.5t36 -33.5t59 -12t59.5 11t36.5 32.5t18 52.5t5 70v410h197v-446zM252 793l134 192h170l-178 -192h-126z" />
    <glyph glyph-name="Ucircumflex" unicode="&#xdb;" horiz-adv-x="740" 
d="M685 281q0 -69 -17.5 -123.5t-55 -92.5t-98 -58.5t-145.5 -20.5q-82 0 -140.5 19.5t-96 56.5t-56 91.5t-21.5 125.5v448h196v-409q0 -38 5 -69t18 -52.5t36 -33.5t59 -12t59.5 11t36.5 32.5t18 52.5t5 70v410h197v-446zM458 793l-87 97l-85 -97h-161l163 192h170
l163 -192h-163z" />
    <glyph glyph-name="Udieresis" unicode="&#xdc;" horiz-adv-x="740" 
d="M685 281q0 -69 -17.5 -123.5t-55 -92.5t-98 -58.5t-145.5 -20.5q-82 0 -140.5 19.5t-96 56.5t-56 91.5t-21.5 125.5v448h196v-409q0 -38 5 -69t18 -52.5t36 -33.5t59 -12t59.5 11t36.5 32.5t18 52.5t5 70v410h197v-446zM331 890q0 -35 -24.5 -59.5t-59.5 -24.5t-59 24.5
t-24 59.5q0 34 24 58.5t59 24.5t59.5 -24.5t24.5 -58.5zM497 973q18 0 33 -6.5t26.5 -18t18 -26.5t6.5 -32t-6.5 -32.5t-18 -27t-26.5 -18t-33 -6.5q-35 0 -59 24.5t-24 59.5q0 34 24 58.5t59 24.5z" />
    <glyph glyph-name="Yacute" unicode="&#xdd;" horiz-adv-x="773" 
d="M766 727l-281 -462v-265h-196v265l-282 462h232q29 -48 55 -96q23 -41 47 -87.5t40 -84.5h10q16 37 41 83t49 88q28 48 58 97h227zM260 793l134 192h170l-178 -192h-126z" />
    <glyph glyph-name="Thorn" unicode="&#xde;" horiz-adv-x="642" 
d="M319 614q60 0 114 -12t95 -40t65 -74t24 -113q0 -63 -23 -110t-63 -78.5t-95.5 -47.5t-119.5 -16h-65v-123h-196v727h196v-113h68zM319 289q36 0 62 20.5t26 59.5q0 38 -25 58.5t-60 20.5h-71v-159h68z" />
    <glyph glyph-name="germandbls" unicode="&#xdf;" horiz-adv-x="678" 
d="M647 225q0 -62 -17 -107.5t-48.5 -74.5t-76 -43t-98.5 -14q-21 0 -47.5 5.5t-52.5 14.5v31.5t0.5 47.5t0.5 47.5v31.5h10q12 -7 25 -9.5t27 -2.5q36 0 52 23.5t16 58.5q0 46 -33 64t-98 18v144q50 0 71.5 17.5t21.5 49.5q0 23 -19.5 36t-50.5 13q-39 0 -59 -23.5
t-20 -65.5v-487h-196v503q0 118 72.5 178.5t209.5 60.5q60 0 110 -11.5t86 -33t56.5 -52.5t20.5 -70q0 -34 -8.5 -59t-23.5 -43t-35 -29.5t-42 -18.5v-8q30 -9 56.5 -24.5t46.5 -38.5t31.5 -55t11.5 -74z" />
    <glyph glyph-name="agrave" unicode="&#xe0;" horiz-adv-x="640" 
d="M266 561q83 0 143.5 -14t99.5 -45t57.5 -81t18.5 -122v-299h-191l-7 76h-10q-25 -42 -63.5 -66t-96.5 -24q-46 0 -81 14t-58 38.5t-35 58.5t-12 74t12 73.5t35 58.5t58 39t81 14q56 0 95 -17.5t67 -51.5h10v12q0 39 -13.5 64.5t-36.5 40t-53.5 20.5t-64.5 6
q-41 0 -79 -13t-61 -36h-10v133q19 13 43.5 22.5t50.5 14.5t52 7.5t49 2.5zM315 118q36 0 56.5 16.5t20.5 45.5t-20.5 45t-56.5 16t-55 -16t-19 -45t19 -45.5t55 -16.5zM295 613l-178 192h170l134 -192h-126z" />
    <glyph glyph-name="aacute" unicode="&#xe1;" horiz-adv-x="640" 
d="M266 561q83 0 143.5 -14t99.5 -45t57.5 -81t18.5 -122v-299h-191l-7 76h-10q-25 -42 -63.5 -66t-96.5 -24q-46 0 -81 14t-58 38.5t-35 58.5t-12 74t12 73.5t35 58.5t58 39t81 14q56 0 95 -17.5t67 -51.5h10v12q0 39 -13.5 64.5t-36.5 40t-53.5 20.5t-64.5 6
q-41 0 -79 -13t-61 -36h-10v133q19 13 43.5 22.5t50.5 14.5t52 7.5t49 2.5zM315 118q36 0 56.5 16.5t20.5 45.5t-20.5 45t-56.5 16t-55 -16t-19 -45t19 -45.5t55 -16.5zM180 613l134 192h170l-178 -192h-126z" />
    <glyph glyph-name="acircumflex" unicode="&#xe2;" horiz-adv-x="640" 
d="M266 561q83 0 143.5 -14t99.5 -45t57.5 -81t18.5 -122v-299h-191l-7 76h-10q-25 -42 -63.5 -66t-96.5 -24q-46 0 -81 14t-58 38.5t-35 58.5t-12 74t12 73.5t35 58.5t58 39t81 14q56 0 95 -17.5t67 -51.5h10v12q0 39 -13.5 64.5t-36.5 40t-53.5 20.5t-64.5 6
q-41 0 -79 -13t-61 -36h-10v133q19 13 43.5 22.5t50.5 14.5t52 7.5t49 2.5zM315 118q36 0 56.5 16.5t20.5 45.5t-20.5 45t-56.5 16t-55 -16t-19 -45t19 -45.5t55 -16.5zM396 613l-87 97l-85 -97h-161l163 192h170l163 -192h-163z" />
    <glyph glyph-name="atilde" unicode="&#xe3;" horiz-adv-x="640" 
d="M266 561q83 0 143.5 -14t99.5 -45t57.5 -81t18.5 -122v-299h-191l-7 76h-10q-25 -42 -63.5 -66t-96.5 -24q-46 0 -81 14t-58 38.5t-35 58.5t-12 74t12 73.5t35 58.5t58 39t81 14q56 0 95 -17.5t67 -51.5h10v12q0 39 -13.5 64.5t-36.5 40t-53.5 20.5t-64.5 6
q-41 0 -79 -13t-61 -36h-10v133q19 13 43.5 22.5t50.5 14.5t52 7.5t49 2.5zM315 118q36 0 56.5 16.5t20.5 45.5t-20.5 45t-56.5 16t-55 -16t-19 -45t19 -45.5t55 -16.5zM539 805q-6 -88 -42.5 -140t-100.5 -52q-24 0 -46.5 10t-43 22t-39 22t-33.5 10q-20 0 -28 -17t-10 -47
h-112q1 43 12.5 78.5t30 60.5t44 39t55.5 14q23 0 45.5 -9.5t43.5 -21.5t39.5 -21.5t32.5 -9.5q20 0 28.5 17t9.5 45h114z" />
    <glyph glyph-name="adieresis" unicode="&#xe4;" horiz-adv-x="640" 
d="M266 561q83 0 143.5 -14t99.5 -45t57.5 -81t18.5 -122v-299h-191l-7 76h-10q-25 -42 -63.5 -66t-96.5 -24q-46 0 -81 14t-58 38.5t-35 58.5t-12 74t12 73.5t35 58.5t58 39t81 14q56 0 95 -17.5t67 -51.5h10v12q0 39 -13.5 64.5t-36.5 40t-53.5 20.5t-64.5 6
q-41 0 -79 -13t-61 -36h-10v133q19 13 43.5 22.5t50.5 14.5t52 7.5t49 2.5zM315 118q36 0 56.5 16.5t20.5 45.5t-20.5 45t-56.5 16t-55 -16t-19 -45t19 -45.5t55 -16.5zM270 710q0 -35 -24.5 -59.5t-59.5 -24.5t-59 24.5t-24 59.5q0 34 24 58.5t59 24.5t59.5 -24.5
t24.5 -58.5zM436 793q18 0 33 -6.5t26.5 -18t18 -26.5t6.5 -32t-6.5 -32.5t-18 -27t-26.5 -18t-33 -6.5q-35 0 -59 24.5t-24 59.5q0 34 24 58.5t59 24.5z" />
    <glyph glyph-name="aring" unicode="&#xe5;" horiz-adv-x="640" 
d="M266 561q83 0 143.5 -14t99.5 -45t57.5 -81t18.5 -122v-299h-191l-7 76h-10q-25 -42 -63.5 -66t-96.5 -24q-46 0 -81 14t-58 38.5t-35 58.5t-12 74t12 73.5t35 58.5t58 39t81 14q56 0 95 -17.5t67 -51.5h10v12q0 39 -13.5 64.5t-36.5 40t-53.5 20.5t-64.5 6
q-41 0 -79 -13t-61 -36h-10v133q19 13 43.5 22.5t50.5 14.5t52 7.5t49 2.5zM315 118q36 0 56.5 16.5t20.5 45.5t-20.5 45t-56.5 16t-55 -16t-19 -45t19 -45.5t55 -16.5zM446 710q0 -30 -12 -55.5t-32 -44t-46 -28.5t-54 -10q-29 0 -55 10.5t-45.5 29.5t-31 44t-11.5 54
q0 30 12 55t31.5 43t45.5 28.5t54 10.5q29 0 55 -10.5t46 -29.5t31.5 -44t11.5 -53zM358 709q0 25 -16 42.5t-40 17.5q-26 0 -40 -19t-14 -41q0 -25 15.5 -42t38.5 -17q26 0 41 18t15 41z" />
    <glyph glyph-name="ae" unicode="&#xe6;" horiz-adv-x="971" 
d="M756 318q-2 47 -23 74t-56 27q-36 0 -57.5 -27t-22.5 -74h159zM293 147q53 0 74.5 24.5t26.5 78.5h-86q-76 0 -76 -51q0 -22 13 -37t48 -15zM943 250h-346q5 -54 42 -78.5t91 -24.5q61 0 97.5 10.5t59.5 33.5h10q1 -40 1 -79.5v-78.5q-17 -14 -41 -23t-51.5 -14.5
t-56.5 -7.5t-56 -2q-32 0 -62.5 6.5t-57 18t-48.5 27.5t-35 35q-15 -20 -37.5 -36t-49.5 -27.5t-58 -17.5t-62 -6q-132 0 -192 43t-60 123q0 79 49 122.5t142 43.5h169q-5 30 -18 51t-33.5 34t-46 19t-53.5 6q-44 0 -83.5 -12.5t-72.5 -34.5h-10v133q19 13 43.5 22t51 14.5
t53 8t49.5 2.5q36 0 70.5 -6t63.5 -17t51.5 -26.5t35.5 -33.5q27 37 75 60t102 23q58 0 108 -18.5t87 -53t58 -84t21 -111.5v-44z" />
    <glyph glyph-name="ccedilla" unicode="&#xe7;" horiz-adv-x="470" 
d="M372 -79q0 -40 -12.5 -69t-35 -47.5t-53.5 -27.5t-68 -9q-29 0 -47.5 3t-44.5 11v105h15q19 -8 31 -12.5t37 -4.5q35 0 48 11t13 43q0 18 -1 35t-3 28q-108 8 -164 82t-56 205q0 137 62.5 212t180.5 75q50 0 94.5 -9.5t76.5 -37.5v-161h-10q-13 22 -34.5 30.5t-48.5 8.5
q-53 0 -82 -30t-29 -88q0 -60 29 -90.5t82 -30.5q26 0 47.5 8.5t35.5 29.5h10v-158q-17 -14 -36.5 -23.5t-42.5 -14.5q0 -5 1 -14t2 -19.5t2 -21.5t1 -19z" />
    <glyph glyph-name="egrave" unicode="&#xe8;" horiz-adv-x="612" 
d="M307 561q63 0 114 -18.5t87 -53t56 -84t20 -111.5v-44h-342q5 -54 42 -78.5t90 -24.5q62 0 98.5 10.5t59.5 33.5h10v-158q-17 -14 -41.5 -23t-53 -14.5t-58.5 -7.5t-57 -2q-72 0 -128 15t-94.5 48.5t-58.5 86.5t-20 128q0 154 71 225.5t205 71.5zM321 419q-36 0 -57 -27
t-23 -74h159q-1 47 -22.5 74t-56.5 27zM295 613l-178 192h170l134 -192h-126z" />
    <glyph glyph-name="eacute" unicode="&#xe9;" horiz-adv-x="612" 
d="M307 561q63 0 114 -18.5t87 -53t56 -84t20 -111.5v-44h-342q5 -54 42 -78.5t90 -24.5q62 0 98.5 10.5t59.5 33.5h10v-158q-17 -14 -41.5 -23t-53 -14.5t-58.5 -7.5t-57 -2q-72 0 -128 15t-94.5 48.5t-58.5 86.5t-20 128q0 154 71 225.5t205 71.5zM321 419q-36 0 -57 -27
t-23 -74h159q-1 47 -22.5 74t-56.5 27zM190 613l134 192h170l-178 -192h-126z" />
    <glyph glyph-name="ecircumflex" unicode="&#xea;" horiz-adv-x="612" 
d="M307 561q63 0 114 -18.5t87 -53t56 -84t20 -111.5v-44h-342q5 -54 42 -78.5t90 -24.5q62 0 98.5 10.5t59.5 33.5h10v-158q-17 -14 -41.5 -23t-53 -14.5t-58.5 -7.5t-57 -2q-72 0 -128 15t-94.5 48.5t-58.5 86.5t-20 128q0 154 71 225.5t205 71.5zM321 419q-36 0 -57 -27
t-23 -74h159q-1 47 -22.5 74t-56.5 27zM403 613l-87 97l-85 -97h-161l163 192h170l163 -192h-163z" />
    <glyph glyph-name="edieresis" unicode="&#xeb;" horiz-adv-x="612" 
d="M307 561q63 0 114 -18.5t87 -53t56 -84t20 -111.5v-44h-342q5 -54 42 -78.5t90 -24.5q62 0 98.5 10.5t59.5 33.5h10v-158q-17 -14 -41.5 -23t-53 -14.5t-58.5 -7.5t-57 -2q-72 0 -128 15t-94.5 48.5t-58.5 86.5t-20 128q0 154 71 225.5t205 71.5zM321 419q-36 0 -57 -27
t-23 -74h159q-1 47 -22.5 74t-56.5 27zM274 710q0 -35 -24.5 -59.5t-59.5 -24.5t-59 24.5t-24 59.5q0 34 24 58.5t59 24.5t59.5 -24.5t24.5 -58.5zM440 793q18 0 33 -6.5t26.5 -18t18 -26.5t6.5 -32t-6.5 -32.5t-18 -27t-26.5 -18t-33 -6.5q-35 0 -59 24.5t-24 59.5
q0 34 24 58.5t59 24.5z" />
    <glyph glyph-name="igrave" unicode="&#xec;" horiz-adv-x="306" 
d="M155 613l-178 192h170l134 -192h-126zM251 0h-196v547h196v-547z" />
    <glyph glyph-name="iacute" unicode="&#xed;" horiz-adv-x="306" 
d="M30 613l134 192h170l-178 -192h-126zM251 0h-196v547h196v-547z" />
    <glyph glyph-name="icircumflex" unicode="&#xee;" horiz-adv-x="306" 
d="M251 0h-196v547h196v-547zM402 613h-163l-87 97l-85 -97h-161l163 192h170z" />
    <glyph glyph-name="idieresis" unicode="&#xef;" horiz-adv-x="306" 
d="M111 710q0 -35 -24.5 -59.5t-59.5 -24.5t-59 24.5t-24 59.5q0 34 24 58.5t59 24.5t59.5 -24.5t24.5 -58.5zM277 793q18 0 33 -6.5t26.5 -18t18 -26.5t6.5 -32t-6.5 -32.5t-18 -27t-26.5 -18t-33 -6.5q-35 0 -59 24.5t-24 59.5q0 34 24 58.5t59 24.5zM251 0h-196v547h196
v-547z" />
    <glyph glyph-name="eth" unicode="&#xf0;" horiz-adv-x="665" 
d="M413 765q47 -47 87.5 -100t70 -108t46.5 -111t17 -110q0 -79 -16.5 -143.5t-53 -110.5t-94 -71t-139.5 -25q-69 0 -124.5 19t-94.5 53.5t-60 83t-21 106.5t21.5 102t57 74t82 45t97.5 15q28 0 50 -6.5t39.5 -16.5t30 -22.5t22.5 -24.5q-5 28 -27.5 73.5t-57 95t-77 98
t-86.5 84.5h230zM331 152q46 0 70 30t24 77q0 42 -25.5 67t-68.5 25q-42 0 -66 -25t-24 -67q0 -47 22.5 -77t67.5 -30zM568 703l-320 -165l-36 63l320 164z" />
    <glyph glyph-name="ntilde" unicode="&#xf1;" horiz-adv-x="644" 
d="M431 561q46 0 76.5 -15t48.5 -44.5t25.5 -72t7.5 -96.5v-333h-196v307q0 40 -15 64.5t-50 24.5q-38 0 -57.5 -30.5t-19.5 -83.5v-282h-196v547h187l8 -111h10q10 25 27.5 48t39.5 40t48.5 27t55.5 10zM551 805q-6 -88 -42.5 -140t-100.5 -52q-24 0 -46.5 10t-43 22
t-39 22t-33.5 10q-20 0 -28 -17t-10 -47h-112q1 43 12.5 78.5t30 60.5t44 39t55.5 14q23 0 45.5 -9.5t43.5 -21.5t39.5 -21.5t32.5 -9.5q20 0 28.5 17t9.5 45h114z" />
    <glyph glyph-name="ograve" unicode="&#xf2;" horiz-adv-x="676" 
d="M435 275q0 60 -26.5 90.5t-71.5 30.5t-70.5 -30.5t-25.5 -90.5q0 -62 25.5 -93t70.5 -31t71.5 31t26.5 93zM645 274q0 -78 -23 -132.5t-63.5 -89t-97 -50.5t-123.5 -16q-68 0 -124 16t-97 50.5t-63.5 89t-22.5 132.5q0 77 22.5 131.5t63.5 89t97 50.5t124 16
q67 0 123.5 -16t97 -50.5t63.5 -89t23 -131.5zM325 613l-178 192h170l134 -192h-126z" />
    <glyph glyph-name="oacute" unicode="&#xf3;" horiz-adv-x="676" 
d="M435 275q0 60 -26.5 90.5t-71.5 30.5t-70.5 -30.5t-25.5 -90.5q0 -62 25.5 -93t70.5 -31t71.5 31t26.5 93zM645 274q0 -78 -23 -132.5t-63.5 -89t-97 -50.5t-123.5 -16q-68 0 -124 16t-97 50.5t-63.5 89t-22.5 132.5q0 77 22.5 131.5t63.5 89t97 50.5t124 16
q67 0 123.5 -16t97 -50.5t63.5 -89t23 -131.5zM214 613l134 192h170l-178 -192h-126z" />
    <glyph glyph-name="ocircumflex" unicode="&#xf4;" horiz-adv-x="676" 
d="M435 275q0 60 -26.5 90.5t-71.5 30.5t-70.5 -30.5t-25.5 -90.5q0 -62 25.5 -93t70.5 -31t71.5 31t26.5 93zM645 274q0 -78 -23 -132.5t-63.5 -89t-97 -50.5t-123.5 -16q-68 0 -124 16t-97 50.5t-63.5 89t-22.5 132.5q0 77 22.5 131.5t63.5 89t97 50.5t124 16
q67 0 123.5 -16t97 -50.5t63.5 -89t23 -131.5zM422 613l-87 97l-85 -97h-161l163 192h170l163 -192h-163z" />
    <glyph glyph-name="otilde" unicode="&#xf5;" horiz-adv-x="676" 
d="M435 275q0 60 -26.5 90.5t-71.5 30.5t-70.5 -30.5t-25.5 -90.5q0 -62 25.5 -93t70.5 -31t71.5 31t26.5 93zM645 274q0 -78 -23 -132.5t-63.5 -89t-97 -50.5t-123.5 -16q-68 0 -124 16t-97 50.5t-63.5 89t-22.5 132.5q0 77 22.5 131.5t63.5 89t97 50.5t124 16
q67 0 123.5 -16t97 -50.5t63.5 -89t23 -131.5zM562 805q-6 -88 -42.5 -140t-100.5 -52q-24 0 -46.5 10t-43 22t-39 22t-33.5 10q-20 0 -28 -17t-10 -47h-112q1 43 12.5 78.5t30 60.5t44 39t55.5 14q23 0 45.5 -9.5t43.5 -21.5t39.5 -21.5t32.5 -9.5q20 0 28.5 17t9.5 45h114
z" />
    <glyph glyph-name="odieresis" unicode="&#xf6;" horiz-adv-x="676" 
d="M435 275q0 60 -26.5 90.5t-71.5 30.5t-70.5 -30.5t-25.5 -90.5q0 -62 25.5 -93t70.5 -31t71.5 31t26.5 93zM645 274q0 -78 -23 -132.5t-63.5 -89t-97 -50.5t-123.5 -16q-68 0 -124 16t-97 50.5t-63.5 89t-22.5 132.5q0 77 22.5 131.5t63.5 89t97 50.5t124 16
q67 0 123.5 -16t97 -50.5t63.5 -89t23 -131.5zM295 710q0 -35 -24.5 -59.5t-59.5 -24.5t-59 24.5t-24 59.5q0 34 24 58.5t59 24.5t59.5 -24.5t24.5 -58.5zM461 793q18 0 33 -6.5t26.5 -18t18 -26.5t6.5 -32t-6.5 -32.5t-18 -27t-26.5 -18t-33 -6.5q-35 0 -59 24.5t-24 59.5
q0 34 24 58.5t59 24.5z" />
    <glyph glyph-name="divide" unicode="&#xf7;" 
d="M643 229h-601v162h601v-162zM427 544q0 -35 -25 -60t-60 -25q-36 0 -61 25t-25 60t25 60t61 25q35 0 60 -25t25 -60zM427 81q0 -35 -25 -60t-60 -25q-36 0 -61 25t-25 60q0 17 6.5 32.5t18.5 27t27.5 18.5t33.5 7t33.5 -7t27 -18.5t18 -27t6.5 -32.5z" />
    <glyph glyph-name="oslash" unicode="&#xf8;" horiz-adv-x="675" 
d="M644 274q0 -78 -22.5 -132.5t-63 -89t-97 -50.5t-123.5 -16q-28 0 -53 3t-48 8q-3 -6 -9.5 -18t-13.5 -26t-14 -26t-10 -18h-91q4 7 12.5 23t18 34t18 34t12.5 23q-60 32 -94.5 93t-34.5 158q0 77 22.5 131.5t63.5 89t97 50.5t124 16q26 0 51 -3.5t49 -8.5l45 86h91
q-4 -7 -12 -23t-17.5 -33.5t-18 -33t-12.5 -22.5q61 -32 95.5 -93t34.5 -156zM240 272q0 -56 19 -85q8 15 23.5 43.5t32 60t32 60t23.5 44.5q-14 6 -30 6q-48 0 -74 -33t-26 -96zM437 275q0 26 -6 47.5t-16 36.5l-112 -211q7 -2 14.5 -3t15.5 -1q48 0 76 32.5t28 98.5z" />
    <glyph glyph-name="ugrave" unicode="&#xf9;" horiz-adv-x="643" 
d="M212 -14q-46 0 -76.5 15t-48.5 44.5t-25.5 72t-7.5 96.5v333h196v-309q0 -42 14 -65t51 -23q38 0 57.5 30.5t19.5 83.5v283h196v-547h-187l-8 110h-10q-11 -26 -28 -48.5t-39 -39t-48.5 -26.5t-55.5 -10zM309 613l-178 192h170l134 -192h-126z" />
    <glyph glyph-name="uacute" unicode="&#xfa;" horiz-adv-x="643" 
d="M212 -14q-46 0 -76.5 15t-48.5 44.5t-25.5 72t-7.5 96.5v333h196v-309q0 -42 14 -65t51 -23q38 0 57.5 30.5t19.5 83.5v283h196v-547h-187l-8 110h-10q-11 -26 -28 -48.5t-39 -39t-48.5 -26.5t-55.5 -10zM202 613l134 192h170l-178 -192h-126z" />
    <glyph glyph-name="ucircumflex" unicode="&#xfb;" horiz-adv-x="643" 
d="M212 -14q-46 0 -76.5 15t-48.5 44.5t-25.5 72t-7.5 96.5v333h196v-309q0 -42 14 -65t51 -23q38 0 57.5 30.5t19.5 83.5v283h196v-547h-187l-8 110h-10q-11 -26 -28 -48.5t-39 -39t-48.5 -26.5t-55.5 -10zM410 613l-87 97l-85 -97h-161l163 192h170l163 -192h-163z" />
    <glyph glyph-name="udieresis" unicode="&#xfc;" horiz-adv-x="643" 
d="M212 -14q-46 0 -76.5 15t-48.5 44.5t-25.5 72t-7.5 96.5v333h196v-309q0 -42 14 -65t51 -23q38 0 57.5 30.5t19.5 83.5v283h196v-547h-187l-8 110h-10q-11 -26 -28 -48.5t-39 -39t-48.5 -26.5t-55.5 -10zM282 710q0 -35 -24.5 -59.5t-59.5 -24.5t-59 24.5t-24 59.5
q0 34 24 58.5t59 24.5t59.5 -24.5t24.5 -58.5zM448 793q18 0 33 -6.5t26.5 -18t18 -26.5t6.5 -32t-6.5 -32.5t-18 -27t-26.5 -18t-33 -6.5q-35 0 -59 24.5t-24 59.5q0 34 24 58.5t59 24.5z" />
    <glyph glyph-name="yacute" unicode="&#xfd;" horiz-adv-x="605" 
d="M597 547l-279 -765h-193l81 218l-198 547h203q3 -8 13.5 -38t23.5 -74.5t26.5 -100t21.5 -115.5h10q4 24 11 56t16.5 66.5t19 68.5t18 62.5t15 48.5t8.5 26h203zM197 613l134 192h170l-178 -192h-126z" />
    <glyph glyph-name="thorn" unicode="&#xfe;" horiz-adv-x="671" 
d="M55 -218v983h196v-344q23 71 69.5 105.5t113.5 34.5q50 0 88.5 -21.5t64.5 -60t39.5 -91.5t13.5 -115t-13.5 -114.5t-39.5 -91t-64.5 -60t-88.5 -21.5q-67 0 -113.5 34.5t-69.5 105.5v-344h-196zM338 151q42 0 67 31.5t25 90.5q0 60 -25 91.5t-67 31.5q-43 0 -66.5 -31.5
t-23.5 -91.5q0 -59 23.5 -90.5t66.5 -31.5z" />
    <glyph glyph-name="ydieresis" unicode="&#xff;" horiz-adv-x="605" 
d="M597 547l-279 -765h-193l81 218l-198 547h203q3 -8 13.5 -38t23.5 -74.5t26.5 -100t21.5 -115.5h10q4 24 11 56t16.5 66.5t19 68.5t18 62.5t15 48.5t8.5 26h203zM267 710q0 -35 -24.5 -59.5t-59.5 -24.5t-59 24.5t-24 59.5q0 34 24 58.5t59 24.5t59.5 -24.5t24.5 -58.5z
M433 793q18 0 33 -6.5t26.5 -18t18 -26.5t6.5 -32t-6.5 -32.5t-18 -27t-26.5 -18t-33 -6.5q-35 0 -59 24.5t-24 59.5q0 34 24 58.5t59 24.5z" />
    <glyph glyph-name="dotlessi" unicode="&#x131;" horiz-adv-x="306" 
d="M251 0h-196v547h196v-547z" />
    <glyph glyph-name="OE" unicode="&#x152;" horiz-adv-x="1139" 
d="M761 561v-105h313v-151h-313v-140h344v-165h-508v59q-35 -35 -82.5 -54t-110.5 -19q-92 0 -161.5 26.5t-116.5 75.5t-71 118.5t-24 156.5q0 81 22 150.5t68 120.5t116.5 79.5t166.5 28.5q121 0 193 -72v57h508v-166h-344zM404 152q74 0 117.5 54t43.5 157
q0 101 -42.5 157t-118.5 56q-77 0 -120 -56t-43 -157q0 -103 44 -157t119 -54z" />
    <glyph glyph-name="oe" unicode="&#x153;" horiz-adv-x="1023" 
d="M995 250h-345q4 -54 41 -78.5t91 -24.5q61 0 98 10.5t59 33.5h11v-158q-17 -14 -41.5 -23t-53 -14.5t-58.5 -7.5t-57 -2q-32 0 -62.5 6.5t-56.5 18.5t-47 28.5t-34 36.5q-32 -43 -88.5 -66.5t-120.5 -23.5q-66 0 -121 16t-94.5 51t-62 89.5t-22.5 131.5q0 74 21.5 128
t60.5 89.5t92.5 52.5t116.5 17q67 0 125 -22.5t93 -67.5q26 39 69.5 64.5t105.5 25.5q60 0 111.5 -18.5t89 -53t58.5 -84t21 -111.5v-44zM337 149q45 0 70.5 31.5t25.5 93.5q0 60 -25.5 91.5t-70.5 31.5t-70.5 -31.5t-25.5 -91.5q0 -62 25.5 -93.5t70.5 -31.5zM808 318
q-2 47 -23 73.5t-56 26.5q-36 0 -57.5 -26.5t-22.5 -73.5h159z" />
    <glyph glyph-name="Scaron" unicode="&#x160;" horiz-adv-x="591" 
d="M244 527q0 -23 23 -39t58 -31.5t75.5 -33t75.5 -43.5t58 -63.5t23 -91.5q0 -55 -17 -99t-51.5 -75t-88 -48t-125.5 -17q-39 0 -70.5 4.5t-59 12.5t-53.5 18.5t-55 23.5v185h10q43 -35 92 -57t117 -22q91 0 91 55q0 23 -23 39.5t-58 33t-75.5 34.5t-75.5 44.5t-58 64
t-23 91.5q0 106 66.5 167.5t201.5 61.5q63 0 115.5 -15t107.5 -41v-181h-10q-39 34 -86 53t-109 19q-38 0 -57 -14t-19 -36zM54 985h163l86 -96l86 96h161l-163 -192h-171z" />
    <glyph glyph-name="scaron" unicode="&#x161;" horiz-adv-x="496" 
d="M468 171q0 -48 -19 -83t-52 -57.5t-76.5 -33.5t-92.5 -11q-36 0 -65 5t-52.5 13t-43.5 17.5t-39 19.5v138h10q20 -26 58 -42.5t96 -16.5q11 0 23 1t21.5 5t15.5 11t6 18q0 14 -16.5 26t-40.5 25.5t-53 29t-53 37t-40.5 49t-16.5 65.5q0 47 18.5 81t50 56t74 32.5
t90.5 10.5t90.5 -15.5t77.5 -37.5v-137h-10q-24 30 -52 45t-75 15q-18 0 -36 -7.5t-18 -24.5q0 -14 16.5 -26t40.5 -25t53 -29t53 -37.5t40.5 -50t16.5 -66.5zM7 805h163l86 -96l86 96h161l-163 -192h-171z" />
    <glyph glyph-name="Ydieresis" unicode="&#x178;" horiz-adv-x="773" 
d="M766 727l-281 -462v-265h-196v265l-282 462h232q29 -48 55 -96q23 -41 47 -87.5t40 -84.5h10q16 37 41 83t49 88q28 48 58 97h227zM346 890q0 -35 -24.5 -59.5t-59.5 -24.5t-59 24.5t-24 59.5q0 34 24 58.5t59 24.5t59.5 -24.5t24.5 -58.5zM512 973q18 0 33 -6.5
t26.5 -18t18 -26.5t6.5 -32t-6.5 -32.5t-18 -27t-26.5 -18t-33 -6.5q-35 0 -59 24.5t-24 59.5q0 34 24 58.5t59 24.5z" />
    <glyph glyph-name="Zcaron" unicode="&#x17d;" horiz-adv-x="687" 
d="M665 0h-643v140l353 421h-339v166h618v-137l-357 -425h368v-165zM92 985h163l86 -96l86 96h161l-163 -192h-171z" />
    <glyph glyph-name="zcaron" unicode="&#x17e;" horiz-adv-x="554" 
d="M529 0h-504v95l240 331h-234v120h492v-91l-243 -334h249v-121zM26 805h163l86 -96l86 96h161l-163 -192h-171z" />
    <glyph glyph-name="florin" unicode="&#x192;" horiz-adv-x="680" 
d="M566 248h-131l-44 -251q-11 -58 -40.5 -97t-68 -63t-82.5 -34t-85 -10q-45 0 -70 6.5t-45 16.5l25 143h10q12 -12 27.5 -19t39.5 -7q18 0 33 3t26 11t18.5 23t11.5 38l42 240h-97v140h121l32 179q11 59 40 99t67.5 64t82.5 34.5t85 10.5q46 0 71 -6.5t45 -17.5l-26 -143
h-9q-12 12 -27.5 19.5t-39.5 7.5q-38 0 -59 -15t-29 -61l-31 -171h107v-140z" />
    <glyph glyph-name="circumflex" unicode="&#x2c6;" horiz-adv-x="639" 
d="M567 613h-163l-87 97l-85 -97h-161l163 192h170l163 -192v0z" />
    <glyph glyph-name="tilde" unicode="&#x2dc;" horiz-adv-x="639" 
d="M547 805q-6 -88 -42.5 -140t-100.5 -52q-24 0 -46.5 10t-43 22t-39 22t-33.5 10q-20 0 -28 -17t-10 -47h-112q1 43 12.5 78.5t30 60.5t44 39t55.5 14q23 0 45.5 -9.5t43.5 -21.5t39.5 -21.5t32.5 -9.5q20 0 28.5 17t9.5 45h114v0z" />
    <glyph glyph-name="endash" unicode="&#x2013;" horiz-adv-x="604" 
d="M576 248h-548v140h548v-140z" />
    <glyph glyph-name="emdash" unicode="&#x2014;" horiz-adv-x="968" 
d="M940 248h-912v140h912v-140z" />
    <glyph glyph-name="quoteleft" unicode="&#x2018;" horiz-adv-x="317" 
d="M295 765q-5 -13 -14 -38.5t-20 -57.5t-23.5 -66.5t-23.5 -66.5t-20.5 -57t-13.5 -38h-170q6 13 18.5 38t28 57t32.5 66.5t32.5 66.5t28 57.5t19.5 38.5h126v0z" />
    <glyph glyph-name="quoteright" unicode="&#x2019;" horiz-adv-x="317" 
d="M22 441l114 324h171q-41 -81 -80 -162t-79 -162h-126z" />
    <glyph glyph-name="quotesinglbase" unicode="&#x201a;" horiz-adv-x="317" 
d="M22 -172l114 323h171q-41 -81 -80 -161.5t-79 -161.5h-126z" />
    <glyph glyph-name="quotedblleft" unicode="&#x201c;" horiz-adv-x="545" 
d="M523 765q-29 -81 -57.5 -162t-57.5 -162h-170l159 324h126zM295 765q-29 -81 -57.5 -162t-57.5 -162h-170q40 81 79 162t80 162h126z" />
    <glyph glyph-name="quotedblright" unicode="&#x201d;" horiz-adv-x="545" 
d="M22 441l114 324h171q-41 -81 -80 -162t-79 -162h-126zM250 441q29 81 57.5 162t57.5 162h170l-159 -324h-126z" />
    <glyph glyph-name="quotedblbase" unicode="&#x201e;" horiz-adv-x="545" 
d="M22 -162l114 323h171q-41 -81 -80 -161.5t-79 -161.5h-126zM250 -162q29 81 57.5 161.5t57.5 161.5h170l-159 -323h-126z" />
    <glyph glyph-name="dagger" unicode="&#x2020;" horiz-adv-x="573" 
d="M185 -100l20 534q-12 -1 -39 -3t-57 -4t-57 -4t-39 -3v140l192 -15l-20 182h202l-20 -182l193 15v-140q-12 1 -39 3t-57 4t-57.5 4t-39.5 3l20 -534h-202z" />
    <glyph glyph-name="daggerdbl" unicode="&#x2021;" horiz-adv-x="574" 
d="M186 -100l20 186l-193 -15v140l193 -14v237q-12 -1 -39 -3t-57 -4t-57 -4t-39 -3v140l192 -15l-20 182h202l-20 -182l193 15v-140q-12 1 -39.5 3t-57.5 4t-57 4t-39 3v-237l193 14v-140l-193 15l20 -186h-202z" />
    <glyph glyph-name="bullet" unicode="&#x2022;" horiz-adv-x="421" 
d="M393 323q0 -75 -54 -129q-53 -53 -129 -53q-74 0 -129 53q-53 55 -53 129q0 75 53 128q54 54 129 54q76 0 129 -54q54 -53 54 -128z" />
    <glyph glyph-name="ellipsis" unicode="&#x2026;" horiz-adv-x="1096" 
d="M207 78q0 -35 -24.5 -60t-60.5 -25q-35 0 -60 25t-25 60q0 17 6.5 32.5t18 27t27 18.5t33.5 7q36 0 60.5 -25t24.5 -60zM633 78q0 -35 -25 -60t-60 -25t-60 25t-25 60q0 17 6.5 32.5t18 27t27 18.5t33.5 7t33.5 -7t27 -18.5t18 -27t6.5 -32.5zM1059 78q0 -35 -25 -60
t-60 -25q-36 0 -61 25t-25 60q0 17 6.5 32.5t18.5 27t27.5 18.5t33.5 7t33.5 -7t27 -18.5t18 -27t6.5 -32.5z" />
    <glyph glyph-name="perthousand" unicode="&#x2030;" horiz-adv-x="1314" 
d="M1296 182q0 -99 -48 -144t-133 -45q-86 0 -133 45t-47 144t47 144t133 45t133.5 -45t47.5 -144zM1165 182q0 15 -1 33t-6 33.5t-15 26t-28 10.5t-28 -10.5t-15 -26t-6 -33.5t-1 -33q0 -16 1 -34.5t6 -34t15 -26t28 -10.5t28 10.5t15 26t6 34t1 34.5zM381 546
q0 -99 -48 -144t-133 -45q-86 0 -133 45t-47 144t47 144t133 45t133.5 -45t47.5 -144zM250 546q0 15 -1 33t-6 33.5t-15 26t-28 10.5t-28 -10.5t-15 -26t-6 -33.5t-1 -33q0 -16 1 -34.5t6 -34t15 -26t28 -10.5t28 10.5t15 26t6 34t1 34.5zM743 727l-461 -727h-110l461 727
h110zM887 182q0 -99 -48 -144t-133 -45q-86 0 -133 45t-47 144t47 144t133 45t133.5 -45t47.5 -144zM756 182q0 15 -1 33t-6 33.5t-15 26t-28 10.5t-28 -10.5t-15 -26t-6 -33.5t-1 -33q0 -16 1 -34.5t6 -34t15 -26t28 -10.5t28 10.5t15 26t6 34t1 34.5z" />
    <glyph glyph-name="guilsinglleft" unicode="&#x2039;" horiz-adv-x="490" 
d="M462 0h-231l-203 273l203 274h231l-203 -274z" />
    <glyph glyph-name="guilsinglright" unicode="&#x203a;" horiz-adv-x="489" 
d="M231 273l-203 274h230l203 -274l-203 -273h-230z" />
    <glyph glyph-name="Euro" unicode="&#x20ac;" horiz-adv-x="659" 
d="M455 576q-63 0 -104 -40.5t-56 -100.5h209v-146h-207q7 -29 21 -54.5t34.5 -44t46 -29t57.5 -10.5q58 0 95 20t67 58h10v-207q-48 -20 -88.5 -27.5t-87.5 -7.5q-75 0 -138 19t-111.5 57t-80.5 94.5t-44 131.5h-59v146h58q11 66 41.5 122t79 97.5t115 64.5t149.5 23
q41 0 81 -8t85 -27v-208h-10q-32 37 -70.5 57t-92.5 20z" />
    <glyph glyph-name="trademark" unicode="&#x2122;" horiz-adv-x="879" 
d="M231 641v-280h-104v280h-114v86h331v-86h-113zM848 727v-366h-105v217q-2 -3 -8.5 -15.5t-15.5 -29t-19 -35t-19 -35t-16 -28.5t-8 -15h-55l-88 158l1 -217h-104v366h121q22 -31 41 -60q17 -26 32.5 -53.5t23.5 -48.5q8 22 24.5 50t33.5 53q19 29 40 59h121z" />
    </font>
</defs>
</svg>
